<?xml version="1.0" encoding="UTF-8" standalone="no"?>
<svg
   xmlns:dc="http://purl.org/dc/elements/1.1/"
   xmlns:cc="http://creativecommons.org/ns#"
   xmlns:rdf="http://www.w3.org/1999/02/22-rdf-syntax-ns#"
   xmlns:svg="http://www.w3.org/2000/svg"
   xmlns="http://www.w3.org/2000/svg"
   xmlns:sodipodi="http://sodipodi.sourceforge.net/DTD/sodipodi-0.dtd"
   xmlns:inkscape="http://www.inkscape.org/namespaces/inkscape"
   version="1.1"
   id="svg44"
   width="255.6145"
   height="256.11646"
   viewBox="0 0 255.6145 256.11646"
   sodipodi:docname="go-to-menu.svg"
   inkscape:version="1.0.1 (3bc2e81, 2020-09-07)">
  <metadata
     id="metadata50">
    <rdf:RDF>
      <cc:Work
         rdf:about="">
        <dc:format>image/svg+xml</dc:format>
        <dc:type
           rdf:resource="http://purl.org/dc/dcmitype/StillImage" />
        <dc:title></dc:title>
      </cc:Work>
    </rdf:RDF>
  </metadata>
  <defs
     id="defs48" />
  <sodipodi:namedview
     pagecolor="#ffffff"
     bordercolor="#666666"
     borderopacity="1"
     objecttolerance="10"
     gridtolerance="10"
     guidetolerance="10"
     inkscape:pageopacity="0"
     inkscape:pageshadow="2"
     inkscape:window-width="1338"
     inkscape:window-height="696"
     id="namedview46"
     showgrid="false"
     fit-margin-top="0"
     fit-margin-left="0"
     fit-margin-right="0"
     fit-margin-bottom="0"
     inkscape:zoom="1.7326389"
     inkscape:cx="137.60001"
     inkscape:cy="144"
     inkscape:window-x="14"
     inkscape:window-y="58"
     inkscape:window-maximized="0"
     inkscape:current-layer="g52" />
  <g
     inkscape:groupmode="layer"
     inkscape:label="Image"
     id="g52">
    <path
       style="fill:#ff2a2a;stroke:none;stroke-width:0.32"
       d="M 123.77324,0.40078379 C 112.5006,1.8808798 101.5022,2.6553118 90.493242,5.9355998 62.562042,14.258096 37.662521,32.685776 21.486804,56.904976 -7.7137656,100.62593 -7.2339456,159.59649 23.42988,202.50497 c 9.162561,12.82112 20.675521,23.81088 33.783361,32.53344 11.632961,7.74112 24.857921,13.51776 38.400001,16.94688 15.568318,3.94208 32.030408,5.16384 48.000008,3.22816 44.93504,-5.44608 84.24575,-35.55296 101.94335,-77.02848 8.24704,-19.32832 11.13632,-40.26176 9.70816,-61.12 C 251.57292,63.156816 209.63629,15.890256 157.37325,3.8965918 147.01581,1.5196318 134.40685,-0.99544021 123.77324,0.40078379 m 0.96,13.71555221 c 11.18593,-1.319808 24.18721,1.445152 34.88001,4.572832 47.2944,13.834048 80.71039,57.501248 81.91519,106.695802 1.39168,56.808 -42.88511,109.04608 -99.83519,115.14688 -20.48865,2.19488 -41.23169,-0.49376 -60.160008,-8.86272 C 24.97996,206.66529 -0.88762564,138.92193 23.34124,82.504976 c 5.61888,-13.08288 13.893121,-25.12608 23.953281,-35.19872 15.658241,-15.67776 35.688641,-26.1552 57.278719,-30.82944 6.69888,-1.450272 13.4128,-1.564352 20.16,-2.36048 m -20.8,107.108634 0.32,-20.48 c 11.36736,-0.0941 23.20448,-1.346239 34.56001,-0.2656 8.55712,0.8144 17.61856,-0.989119 25.28,3.96096 17.60704,11.376 17.32384,37.488 -1.6,47.53984 -7.0208,3.7296 -15.66976,2.8448 -23.36,2.8448 h -31.36001 c -5.13088,0 -10.583358,-0.52896 -15.679678,0.0557 -3.279359,0.37632 -2.240319,4.52096 -2.240319,6.98432 0,1.06912 -0.29984,2.816 0.741759,3.51104 1.41472,0.94432 4.65088,0.32896 6.29824,0.32896 h 15.999998 c 9.28992,0 18.57345,-0.0883 27.84001,-0.3152 14.17696,-0.34752 27.07968,-0.71872 37.38528,-12.1648 17.27232,-19.18368 10.31552,-52.4304 -14.98528,-60.954879 -8.22176,-2.77024 -16.41888,-2.52064 -24.96,-2.72992 -11.29025,-0.27648 -22.60577,-0.3152 -33.92001,-0.3152 0,-4.921915 -0.32,-9.795195 -0.32,-14.719995 0,-1.0864 0.52288,-4.17376 -0.74176,-4.7184 -1.77504,-0.76416 -6.537598,4.0976 -7.898238,5.15008 -5.978239,4.6256 -12.00896,9.19456 -17.92,13.904635 -1.91488,1.52576 -5.80128,3.66304 -6.50816,6.1424 -0.65152,2.28544 5.25568,5.703039 6.82816,6.889279 5.9232,4.4688 11.796481,9.03168 17.6,13.65568 2.38944,1.90368 5.546558,5.28288 8.639998,5.69632 z"
       id="path56" />
  </g>
</svg>
