<?xml version="1.0" encoding="UTF-8" standalone="no"?>
<svg
   xmlns:dc="http://purl.org/dc/elements/1.1/"
   xmlns:cc="http://creativecommons.org/ns#"
   xmlns:rdf="http://www.w3.org/1999/02/22-rdf-syntax-ns#"
   xmlns:svg="http://www.w3.org/2000/svg"
   xmlns="http://www.w3.org/2000/svg"
   xmlns:sodipodi="http://sodipodi.sourceforge.net/DTD/sodipodi-0.dtd"
   xmlns:inkscape="http://www.inkscape.org/namespaces/inkscape"
   version="1.1"
   id="svg44"
   width="168.01785"
   height="169.51793"
   viewBox="0 0 168.01785 169.51793"
   sodipodi:docname="go-to-menu.svg"
   inkscape:version="1.0.1 (3bc2e81, 2020-09-07)">
  <metadata
     id="metadata50">
    <rdf:RDF>
      <cc:Work
         rdf:about="">
        <dc:format>image/svg+xml</dc:format>
        <dc:type
           rdf:resource="http://purl.org/dc/dcmitype/StillImage" />
        <dc:title></dc:title>
      </cc:Work>
    </rdf:RDF>
  </metadata>
  <defs
     id="defs48" />
  <sodipodi:namedview
     pagecolor="#ffffff"
     bordercolor="#666666"
     borderopacity="1"
     objecttolerance="10"
     gridtolerance="10"
     guidetolerance="10"
     inkscape:pageopacity="0"
     inkscape:pageshadow="2"
     inkscape:window-width="1338"
     inkscape:window-height="696"
     id="namedview46"
     showgrid="false"
     fit-margin-top="0"
     fit-margin-left="0"
     fit-margin-right="0"
     fit-margin-bottom="0"
     inkscape:zoom="1.7768347"
     inkscape:cx="136.06958"
     inkscape:cy="141.75683"
     inkscape:window-x="14"
     inkscape:window-y="58"
     inkscape:window-maximized="0"
     inkscape:current-layer="g52" />
  <g
     inkscape:groupmode="layer"
     inkscape:label="Image"
     id="g52">
    <path
       style="fill:#00aad4;stroke:none"
       d="M 77.542391,0.69172281 C 42.859591,5.4128228 12.837693,26.295723 2.9705929,61.266527 -12.000107,114.32553 31.579191,175.91353 89.542391,168.98153 c 35.299999,-4.222 66.437999,-26.053 75.843999,-61.715 14.014,-53.129503 -29.778,-114.4789072 -87.843999,-106.57480719 m 0,13.86030019 C 149.28739,5.9715228 181.29139,103.84353 123.54239,143.23753 c -9.879,6.74 -21.186,10.331 -32.999999,11.744 -71.7447,8.58 -103.748798,-89.292303 -46,-128.686507 9.8793,-6.7392 21.1855,-10.33 33,-11.743 m -21,55.714504 c 3.4967,0 9.462,1.1233 12.4406,-1.0278 4.4704,-3.2287 4.5264,-9.0105 10.5634,-11.3441 9.168,-3.5439 20.393,5.514 17.913,15.3719 -2.142,8.512 -10.345,8.199 -15.703,13.278 -5.203,4.931 -4.214,12.215 -4.214,18.722003 h 13 c 0.117,-9.861003 7.872,-9.823003 13.905999,-16.043003 7.186,-7.408 9.344,-19.2786 5.626,-28.957 -10.819999,-28.1608 -53.284499,-19.4988 -53.531999,10 m 21,43.000003 v 14 h 13 v -14 z"
       id="path158" />
  </g>
</svg>
