<?xml version="1.0" encoding="UTF-8" standalone="no"?>
<svg
   xmlns:dc="http://purl.org/dc/elements/1.1/"
   xmlns:cc="http://creativecommons.org/ns#"
   xmlns:rdf="http://www.w3.org/1999/02/22-rdf-syntax-ns#"
   xmlns:svg="http://www.w3.org/2000/svg"
   xmlns="http://www.w3.org/2000/svg"
   xmlns:sodipodi="http://sodipodi.sourceforge.net/DTD/sodipodi-0.dtd"
   xmlns:inkscape="http://www.inkscape.org/namespaces/inkscape"
   version="1.1"
   id="svg94"
   width="1299.6824"
   height="1300.5967"
   viewBox="0 0 1299.6824 1300.5967"
   sodipodi:docname="next.svg"
   inkscape:version="1.0.1 (3bc2e81, 2020-09-07)">
  <metadata
     id="metadata100">
    <rdf:RDF>
      <cc:Work
         rdf:about="">
        <dc:format>image/svg+xml</dc:format>
        <dc:type
           rdf:resource="http://purl.org/dc/dcmitype/StillImage" />
        <dc:title></dc:title>
      </cc:Work>
    </rdf:RDF>
  </metadata>
  <defs
     id="defs98" />
  <sodipodi:namedview
     pagecolor="#ffffff"
     bordercolor="#666666"
     borderopacity="1"
     objecttolerance="10"
     gridtolerance="10"
     guidetolerance="10"
     inkscape:pageopacity="0"
     inkscape:pageshadow="2"
     inkscape:window-width="1338"
     inkscape:window-height="696"
     id="namedview96"
     showgrid="false"
     fit-margin-top="0"
     fit-margin-left="0"
     fit-margin-right="0"
     fit-margin-bottom="0"
     inkscape:zoom="0.356875"
     inkscape:cx="800"
     inkscape:cy="797.28922"
     inkscape:window-x="14"
     inkscape:window-y="58"
     inkscape:window-maximized="0"
     inkscape:current-layer="g102" />
  <g
     inkscape:groupmode="layer"
     inkscape:label="Image"
     id="g102">
    <path
       style="fill:#37c837;stroke:none"
       d="m 630.50678,1.1497596 c -17.767,2.333 -36.098,1.824 -54,3.742 -38.87,4.164 -77.577,12.2830004 -115,23.5540004 -166.89,50.264 -309.802,169.4 -389.742001,324.28 -92.561,179.335 -95.965,398.2 -8,580 32.353,66.86 76.271001,127.53004 128.742001,180.00004 41.211,41.21 88.888,77.24 140,105.31 54.261,29.79 112.338,53.37 173,66.48 74.263,16.05 150.588,20.84 226,10.93 75.17399,-9.89 148.55999,-32.17 215.99999,-66.98 209.35003,-108.05 346.23003,-327.65004 351.99003,-562.74004 4.42,-180.784 -70.29,-363.295 -202.99,-486.911 -70.87,-66.016 -154.05003,-115.736 -246.00003,-146.09 -50.547,-16.686 -102.97699,-26.4530004 -155.99999,-30.0880004 -20.755,-1.423 -43.237,-4.212 -64,-1.487 m -8,99.8620004 c 45.933,-5.42 97.091,1.956 142,11.503 100.11999,21.284 192.98999,70.478 267.00002,141.25 112.74,107.801 174.78,264.344 167.96,419.961 -8.79,200.62 -128.7,385.04004 -309.96003,472.74004 -55.624,26.92 -115.725,43.62 -176.99999,50.97 -66.963,8.04 -135.642,2.58 -201,-13.84 -60.685,-15.24 -120.859,-41.48 -172,-77.73 -75.204,-53.3 -137.301,-120.91004 -179.742,-203.14004 -109.709001,-212.558 -65.440001,-483.363 107.742,-648.961 71.69,-68.55 160.598,-116.306 257,-139.155 32.482,-7.698 65.081,-9.714 98,-13.598 m -63,216.06 c -5.726,1.427 -11.941,10.595 -16,14.654 l -38,38 c -3.507,3.507 -16.04,12.442 -14.654,18 1.427,5.726 10.595,11.941 14.654,16 l 39,39 145,145 47,47 c 3.303,3.303 15.168,11.765 13.793,17 -1.652,6.293 -12.277,13.484 -16.793,18 l -46,46 -137,137 -41,41 c -5.48,5.48 -14.9,11.96 -18.248,19 -2.723,5.72 9.706,14.46 13.248,18 l 41,41 c 3.338,3.34 9.875,12.79 15,12.79 6.254,0 15.817,-13.61 20,-17.79 l 54,-54 193.99999,-194 c 16.524,-16.524 33.17,-32.909 49.09,-50 3.78,-4.06 15.7,-12.083 15.7,-18 0,-4.892 -8.63,-10.824 -11.79,-14 -11.13,-11.186 -21.82,-22.824 -33,-34 l -133.99999,-134 -116,-116 -28,-28 c -2.522,-2.521 -6.833,-8.693 -11,-7.654 z"
       id="path106" />
  </g>
</svg>
