<?xml version="1.0" encoding="UTF-8" standalone="no"?>
<svg
   xmlns:dc="http://purl.org/dc/elements/1.1/"
   xmlns:cc="http://creativecommons.org/ns#"
   xmlns:rdf="http://www.w3.org/1999/02/22-rdf-syntax-ns#"
   xmlns:svg="http://www.w3.org/2000/svg"
   xmlns="http://www.w3.org/2000/svg"
   xmlns:sodipodi="http://sodipodi.sourceforge.net/DTD/sodipodi-0.dtd"
   xmlns:inkscape="http://www.inkscape.org/namespaces/inkscape"
   width="31.539778mm"
   height="32.23032mm"
   viewBox="0 0 31.539778 32.23032"
   version="1.1"
   id="svg8"
   inkscape:version="1.0.1 (3bc2e81, 2020-09-07)"
   sodipodi:docname="no.svg">
  <defs
     id="defs2" />
  <sodipodi:namedview
     id="base"
     pagecolor="#ffffff"
     bordercolor="#666666"
     borderopacity="1.0"
     inkscape:pageopacity="0.0"
     inkscape:pageshadow="2"
     inkscape:zoom="2.4521358"
     inkscape:cx="89.9198"
     inkscape:cy="77.071075"
     inkscape:document-units="mm"
     inkscape:current-layer="layer1"
     inkscape:document-rotation="0"
     showgrid="false"
     inkscape:pagecheckerboard="true"
     inkscape:window-width="1338"
     inkscape:window-height="696"
     inkscape:window-x="14"
     inkscape:window-y="58"
     inkscape:window-maximized="0" />
  <metadata
     id="metadata5">
    <rdf:RDF>
      <cc:Work
         rdf:about="">
        <dc:format>image/svg+xml</dc:format>
        <dc:type
           rdf:resource="http://purl.org/dc/dcmitype/StillImage" />
        <dc:title></dc:title>
      </cc:Work>
    </rdf:RDF>
  </metadata>
  <g
     inkscape:label="Layer 1"
     inkscape:groupmode="layer"
     id="layer1"
     transform="translate(18.64805,-24.313034)">
    <path
       style="fill:#ff2a2a;stroke:none;stroke-width:0.264583"
       d="m -4.5722681,24.600226 c -7.1461849,1.629852 -12.7214849,6.012358 -13.9067659,13.601137 -1.530741,9.800855 7.568724,20.324234 17.87551594,18.021301 C 6.8402699,54.559493 12.535162,49.054308 12.879914,41.11178 13.253241,32.505969 4.7214859,22.480609 -4.5722681,24.600226 m -4.733714,8.205754 c 2.589027,-1.020392 3.930756,3.534383 6.056419,4.111863 2.090658,0.567981 3.71350604,-3.484139 5.55625,-4.109006 3.314912,-1.123976 1.572631,2.978679 0.552847,4.059185 -0.825183,0.874368 -2.42935096,2.178738 -2.54619096,3.450008 -0.175895,1.913335 6.68514796,6.260783 3.28115096,7.828492 -2.429511,1.118923 -4.20901896,-3.711257 -6.314679,-4.132077 -1.724369,-0.344646 -3.306551,2.734204 -4.497917,3.627808 -1.247113,0.935275 -3.5996029,0.473392 -2.9669579,-1.503389 0.6669879,-2.08415 3.9105949,-3.319119 4.1147209,-5.55625 0.158723,-1.739556 -6.7623539,-6.386672 -3.235643,-7.776634 z"
       id="path961" />
    <path
       style="fill:#ffffff;stroke:none;stroke-width:0.0154132"
       d="M 78.975912,90.095256 C 76.877978,89.254462 74.189089,86.872828 69.71456,81.892186 63.0611,74.486157 60.078972,72.987708 56.066849,75.03454 c -2.315177,1.181113 -3.919374,2.703113 -8.391466,7.961492 -5.443878,6.401028 -8.418973,7.814584 -12.777132,6.070794 -2.072002,-0.829053 -2.997918,-2.251168 -2.952093,-4.534133 0.05762,-2.870384 1.74489,-5.356078 7.493571,-11.039528 5.718116,-5.65323 7.392443,-7.884632 8.025239,-10.695362 0.359098,-1.595029 0.28909,-2.101918 -0.535071,-3.874173 -0.521523,-1.121472 -2.48586,-3.843276 -4.365194,-6.048454 C 33.63824,42.401012 31.908657,39.819246 31.8446,36.873169 c -0.04311,-1.982602 0.766316,-3.101969 3.106859,-4.296534 3.968163,-2.025269 7.624072,-0.330087 12.84629,5.956607 4.493068,5.408916 6.743213,7.588359 8.885719,8.606522 2.556023,1.214674 3.562422,1.214425 6.117116,-0.0015 1.993887,-0.949015 5.025622,-3.821532 10.129847,-9.597856 2.946848,-3.334873 5.518895,-5.162008 8.022296,-5.698892 4.726215,-1.013591 6.291862,1.550244 4.495999,7.362446 -1.185901,3.838091 -3.235037,6.920439 -7.668062,11.53444 -6.895715,7.177229 -7.658807,9.9818 -4.075084,14.977046 1.021097,1.423275 3.454605,4.402605 5.407792,6.620731 6.669369,7.57403 8.721862,11.035975 8.198118,13.82777 -0.571559,3.046687 -5.15228,5.207101 -8.335578,3.93132 z"
       id="path965"
       transform="matrix(0.26458333,0,0,0.26458333,-18.64805,24.313034)" />
  </g>
</svg>
