<?xml version="1.0" encoding="UTF-8" standalone="no"?>
<svg
   xmlns:dc="http://purl.org/dc/elements/1.1/"
   xmlns:cc="http://creativecommons.org/ns#"
   xmlns:rdf="http://www.w3.org/1999/02/22-rdf-syntax-ns#"
   xmlns:svg="http://www.w3.org/2000/svg"
   xmlns="http://www.w3.org/2000/svg"
   xmlns:sodipodi="http://sodipodi.sourceforge.net/DTD/sodipodi-0.dtd"
   xmlns:inkscape="http://www.inkscape.org/namespaces/inkscape"
   version="1.1"
   id="svg122"
   width="46.080002"
   height="56.120159"
   viewBox="0 0 46.080002 56.120159"
   sodipodi:docname="solution.svg"
   inkscape:version="1.0.1 (3bc2e81, 2020-09-07)">
  <metadata
     id="metadata128">
    <rdf:RDF>
      <cc:Work
         rdf:about="">
        <dc:format>image/svg+xml</dc:format>
        <dc:type
           rdf:resource="http://purl.org/dc/dcmitype/StillImage" />
        <dc:title></dc:title>
      </cc:Work>
    </rdf:RDF>
  </metadata>
  <defs
     id="defs126" />
  <sodipodi:namedview
     pagecolor="#ffffff"
     bordercolor="#666666"
     borderopacity="1"
     objecttolerance="10"
     gridtolerance="10"
     guidetolerance="10"
     inkscape:pageopacity="0"
     inkscape:pageshadow="2"
     inkscape:window-width="1338"
     inkscape:window-height="696"
     id="namedview124"
     showgrid="false"
     inkscape:zoom="6.1059049"
     inkscape:cx="22.509114"
     inkscape:cy="33.163429"
     inkscape:window-x="14"
     inkscape:window-y="58"
     inkscape:window-maximized="0"
     inkscape:current-layer="g130" />
  <g
     inkscape:groupmode="layer"
     inkscape:label="Image"
     id="g130">
    <path
       style="fill:#d4ff2a;stroke:none;stroke-width:0.32"
       d="m 22.4,0 v 6.3999996 h 1.28 V 0 H 22.4 m 6.4,7.3599996 1.28,0.32 C 30.98432,5.7695996 32.44544,3.423712 32,1.28 30.04864,2.326976 29.2752,5.3063676 28.8,7.3599996 M 13.76,1.92 16,7.6799996 l 1.28,-0.32 C 16.861056,5.5920636 16.011296,1.579296 13.76,1.92 m -6.72,4.1599996 -0.64,0.64 v 0.32 c 1.329024,1.632 3.110752,4.5874564 5.44,3.5200004 V 10.24 L 7.04,6.0799996 M 34.24,10.24 v 0.32 c 2.2528,1.032416 4.53472,-1.9372804 5.44,-3.8400004 -2.3488,-0.38032 -3.84736,2.112 -5.44,3.5200004 M 21.44,8.4560636 C 11.776256,9.7721276 5.458592,19.470272 9.108384,28.8 c 1.357376,3.46976 4.495488,4.85472 6.24272,7.784 0.971168,1.62816 -0.642624,4.76256 1.107648,5.96704 C 17.32432,43.14688 18.847104,42.88 19.84,42.88 c 2.872064,0 6.11296,0.42272 8.94592,-0.04736 2.9312,-0.4864 0.76672,-4.78368 2.12704,-6.50816 C 33.44768,33.11136 36.38272,31.48128 37.47328,27.2 39.98944,17.322976 31.94656,7.0252156 21.44,8.4560636 M 20.48,10.984192 C 29.2928,9.5125436 37.56928,17.165888 35.2768,26.24 c -1.112,4.40128 -3.9184,5.656 -6.69504,8.74432 -1.31808,1.4656 0.25696,5.21696 -2.04064,5.60832 -1.43904,0.24512 -7.39264,0.75936 -8.108032,-0.6944 -0.777696,-1.58048 0.328704,-3.42208 -0.97184,-4.91392 C 15.589632,32.83712 13.120128,31.88192 11.81184,29.12 8.409152,21.936768 12.172352,12.371488 20.48,10.984192 M 1.92,13.44 c 0.10192,2.268032 3.567072,3.007744 5.44,3.52 L 7.68,15.68 1.92,13.44 m 36.48,2.24 0.32,1.28 5.76,-2.56 c -1.60416,-1.439424 -4.46656,0.361728 -6.08,1.28 M 0,22.4 v 0.64 l 6.08,0.32 V 22.08 L 0,22.4 m 40,-0.32 v 1.28 l 6.08,-0.32 V 22.4 L 40,22.08 M 1.92,30.72 2.24,32 7.36,30.08 7.04,28.8 1.92,30.72 M 39.04,28.8 38.72,30.08 43.84,32 44.16,30.72 39.04,28.8 M 6.4,38.4 c 2.952352,2.54816 6.048832,-5.94144 2.252608,-2.53984 -0.315232,0.28256 -0.593536,0.61568 -0.873344,0.93216 L 6.4,38.4 m 32.96,0.96 c -0.08192,-3.72736 -6.29088,-5.51072 -2.8736,-1.9248 0.29792,0.31264 0.62048,0.61504 0.952,0.89184 0.61216,0.51104 1.17984,0.7808 1.9216,1.03296 m -23.252096,5.12864 c -1.276448,0.89216 0.270112,1.93248 1.173568,2.12128 2.97584,0.62208 6.561728,0.1248 9.598528,0.10976 1.03328,-0.0051 2.57952,0.10912 3.30816,-0.80256 C 31.29024,44.53824 29.01952,44.1776 28.16,44.1616 25.28224,44.1072 22.398336,44.16 19.52,44.16 c -0.99056,0 -2.55136,-0.27296 -3.412096,0.32864 M 18.24,47.496 c -0.888224,0.12288 -4.206464,1.19392 -1.871104,2.23104 C 18.851104,50.82912 23.53184,49.92 26.24,49.92 c 1.04864,0 2.48992,0.24256 3.47104,-0.19296 C 32.0464,48.68992 28.72832,47.61888 27.84,47.496 c -2.99616,-0.41408 -6.60368,-0.41408 -9.6,0 m -1.845664,3.62144 c -1.162016,0.54976 -0.82304,1.84224 0.280736,2.18368 2.830752,0.87584 6.926208,0.1392 9.884928,0.13888 1.00704,0 2.50368,0.24384 3.37632,-0.37696 C 31.26176,52.11968 29.83328,51.03456 28.7952,50.91488 25.808,50.56992 19.111296,49.832 16.394336,51.11744 M 20.8,54.72 c 1.182752,1.86688 3.29728,1.86688 4.48,0 z"
       id="path134" />
  </g>
</svg>
