<?xml version="1.0" encoding="UTF-8" standalone="no"?>
<svg
   xmlns:dc="http://purl.org/dc/elements/1.1/"
   xmlns:cc="http://creativecommons.org/ns#"
   xmlns:rdf="http://www.w3.org/1999/02/22-rdf-syntax-ns#"
   xmlns:svg="http://www.w3.org/2000/svg"
   xmlns="http://www.w3.org/2000/svg"
   xmlns:sodipodi="http://sodipodi.sourceforge.net/DTD/sodipodi-0.dtd"
   xmlns:inkscape="http://www.inkscape.org/namespaces/inkscape"
   width="44.603092mm"
   height="45.096664mm"
   viewBox="0 0 44.603093 45.096665"
   version="1.1"
   id="svg8"
   inkscape:version="1.0.1 (3bc2e81, 2020-09-07)"
   sodipodi:docname="yes.svg">
  <defs
     id="defs2" />
  <sodipodi:namedview
     id="base"
     pagecolor="#ffffff"
     bordercolor="#666666"
     borderopacity="1.0"
     inkscape:pageopacity="0.0"
     inkscape:pageshadow="2"
     inkscape:zoom="0.73815341"
     inkscape:cx="70.215277"
     inkscape:cy="125.20924"
     inkscape:document-units="mm"
     inkscape:current-layer="layer1"
     inkscape:document-rotation="0"
     showgrid="false"
     inkscape:pagecheckerboard="true"
     inkscape:window-width="1338"
     inkscape:window-height="696"
     inkscape:window-x="14"
     inkscape:window-y="58"
     inkscape:window-maximized="0" />
  <metadata
     id="metadata5">
    <rdf:RDF>
      <cc:Work
         rdf:about="">
        <dc:format>image/svg+xml</dc:format>
        <dc:type
           rdf:resource="http://purl.org/dc/dcmitype/StillImage" />
        <dc:title></dc:title>
      </cc:Work>
    </rdf:RDF>
  </metadata>
  <g
     inkscape:label="Layer 1"
     inkscape:groupmode="layer"
     id="layer1"
     transform="translate(-20.134599,8.8277026)">
    <path
       style="fill:#44aa00;stroke:none;stroke-width:0.264583"
       d="m 40.549672,-8.6980425 c -4.563349,0.6211623 -8.827638,2.0790165 -12.435417,5.0374816 -16.92455,13.8785339 -4.871668,42.4313629 16.933333,39.7535149 3.525838,-0.433123 6.813286,-1.609725 9.789584,-3.547798 15.914159,-10.363729 11.808884,-35.3945044 -6.35,-40.4841618 -2.510631,-0.7037387 -5.337969,-1.1129169 -7.9375,-0.7590367 M 38.433005,27.172791 c -2.938172,-2.069571 -5.397553,-5.132916 -7.9375,-7.672917 -0.708025,-0.708025 -2.581064,-2.0066 -2.289784,-3.175 0.182298,-0.731308 0.990812,-1.343289 1.496245,-1.852083 0.637858,-0.642408 1.63965,-2.061951 2.645622,-2.061951 2.250281,0 4.322895,5.946828 6.614584,4.804093 3.549914,-1.769798 6.978914,-6.810666 9.789583,-9.6213093 0.89244,-0.892334 2.170113,-2.767092 3.439584,-3.083534 1.331383,-0.331893 4.920456,3.365157 4.29895,4.671034 -0.617538,1.2983903 -2.2352,2.4341933 -3.240617,3.4395843 -2.280973,2.280973 -4.547394,4.569883 -6.909859,6.766983 -2.708804,2.519098 -5.291322,5.169694 -7.906808,7.7851 z"
       id="path919" />
    <path
       style="fill:#ffffff;stroke:none;stroke-width:0.0208329"
       d="M 64.314777,131.73953 C 57.961021,126.27193 32.554397,100.31637 31.440011,98.154465 30.716842,96.751521 30.624175,95.965698 31.040926,94.770204 31.767322,92.686464 42.395,81.730984 44.426392,80.971875 47.523637,79.814469 50.41177,81.65789 55.922085,88.309276 65.087401,99.37254 67.28498,100.60115 72.857389,97.7774 75.930381,96.220198 84.544627,89.177742 87.297001,85.972502 94.612186,77.453693 108.91159,61.542394 113.43238,56.891008 c 6.52448,-6.712939 7.96609,-7.295712 12.08147,-4.883942 5.06569,2.968694 11.81571,11.188545 11.83009,14.406125 0.0102,2.276891 -3.28437,5.866913 -21.76733,23.719566 -10.30748,9.955983 -24.948223,24.244223 -32.53497,31.751633 -7.586748,7.50743 -13.911797,13.64983 -14.055665,13.64981 -0.143867,-4e-5 -2.245906,-1.70763 -4.671198,-3.79467 z"
       id="path923"
       transform="matrix(0.26458333,0,0,0.26458333,20.134599,-8.8277026)" />
    <path
       style="fill:#ffffff;stroke:none;stroke-width:0.0208329"
       d="M 64.314777,131.74108 C 57.955152,126.27066 32.547084,100.31477 31.437037,98.154465 30.705022,96.729862 30.621454,95.973501 31.05778,94.721857 31.7888,92.62485 42.353272,81.74998 44.40649,80.980943 c 3.011136,-1.127827 6.313701,0.875485 11.100777,6.733653 9.865278,12.0726 12.020663,13.195564 18.193109,9.478714 6.475239,-3.899185 10.834147,-8.048732 22.839035,-21.742061 11.299319,-12.888533 20.311059,-22.443099 22.365769,-23.712974 2.56811,-1.587182 4.13583,-1.357931 7.89914,1.155106 5.00602,3.342896 10.52578,10.42342 10.53962,13.51981 0.01,2.135792 -2.95476,5.494122 -16.29742,18.463746 -7.29904,7.094969 -21.975364,21.395353 -32.614058,31.778633 -10.63869,10.38327 -19.425196,18.87865 -19.525568,18.87863 -0.100373,-4e-5 -2.166825,-1.70694 -4.592117,-3.79312 z"
       id="path925"
       transform="matrix(0.26458333,0,0,0.26458333,20.134599,-8.8277026)" />
    <path
       style="fill:#008000;stroke:none;stroke-width:0.0374879"
       d="M 67.141638,168.30199 C 36.215232,161.2967 11.903267,136.83073 3.0480421,103.80238 0.21086515,93.220227 0.41112934,71.758089 3.4452371,61.23534 12.943236,28.294827 39.958824,6.3138597 77.380219,1.0788682 91.757427,-0.93240278 110.85,3.4043641 126.14504,12.155511 c 18.85193,10.786249 33.11806,30.083345 39.30152,53.161211 2.51017,9.368484 3.00884,29.243002 0.96629,38.512798 -5.73116,26.01002 -22.3785,46.57963 -46.88549,57.93209 -4.55162,2.10846 -11.17687,4.5928 -14.7228,5.52075 -8.972021,2.34794 -29.361856,2.89995 -37.662922,1.01963 z m 34.848182,-63.73404 c 17.64116,-17.050728 33.08531,-32.413101 34.32032,-34.138606 2.56427,-3.582642 2.30791,-5.369786 -1.60081,-11.160017 -2.76401,-4.094491 -10.25066,-9.496591 -13.16111,-9.496591 -2.68114,0 -6.71251,3.887595 -23.391196,22.557023 -15.344086,17.175524 -25.341617,26.044485 -29.358627,26.044485 -1.313609,0 -5.344332,-3.427017 -11.082657,-9.422741 -6.305983,-6.588845 -9.708406,-9.422741 -11.313099,-9.422741 -2.573441,0 -15.468057,11.790202 -16.276753,14.882662 -0.266343,1.018499 0.115968,3.008759 0.84958,4.422799 2.084826,4.018497 35.897746,37.429097 37.507984,37.061687 0.787341,-0.17965 15.865205,-14.27723 33.506368,-31.32796 z"
       id="path927"
       transform="matrix(0.26458333,0,0,0.26458333,20.134599,-8.8277026)" />
  </g>
</svg>
