<?xml version="1.0" encoding="UTF-8" standalone="no"?>
<svg
   xmlns:dc="http://purl.org/dc/elements/1.1/"
   xmlns:cc="http://creativecommons.org/ns#"
   xmlns:rdf="http://www.w3.org/1999/02/22-rdf-syntax-ns#"
   xmlns:svg="http://www.w3.org/2000/svg"
   xmlns="http://www.w3.org/2000/svg"
   xmlns:sodipodi="http://sodipodi.sourceforge.net/DTD/sodipodi-0.dtd"
   xmlns:inkscape="http://www.inkscape.org/namespaces/inkscape"
   width="42.721355mm"
   height="43.484619mm"
   viewBox="0 0 42.721356 43.484618"
   version="1.1"
   id="svg1162"
   inkscape:version="1.0.1 (3bc2e81, 2020-09-07)"
   sodipodi:docname="bb.svg">
  <defs
     id="defs1156" />
  <sodipodi:namedview
     id="base"
     pagecolor="#ffffff"
     bordercolor="#666666"
     borderopacity="1.0"
     inkscape:pageopacity="0.0"
     inkscape:pageshadow="2"
     inkscape:zoom="1.9317641"
     inkscape:cx="-27.380697"
     inkscape:cy="138.56119"
     inkscape:document-units="mm"
     inkscape:current-layer="layer1"
     inkscape:document-rotation="0"
     showgrid="false"
     inkscape:window-width="1338"
     inkscape:window-height="696"
     inkscape:window-x="14"
     inkscape:window-y="58"
     inkscape:window-maximized="0"
     inkscape:pagecheckerboard="true" />
  <metadata
     id="metadata1159">
    <rdf:RDF>
      <cc:Work
         rdf:about="">
        <dc:format>image/svg+xml</dc:format>
        <dc:type
           rdf:resource="http://purl.org/dc/dcmitype/StillImage" />
        <dc:title></dc:title>
      </cc:Work>
    </rdf:RDF>
  </metadata>
  <g
     inkscape:label="Layer 1"
     inkscape:groupmode="layer"
     id="layer1"
     transform="translate(-184.39775,-207.88323)">
    <path
       style="fill:#040404;stroke:none;stroke-width:0.264583"
       d="m 202.94571,215.05364 c -6.19545,2.59308 -14.64831,14.58489 -5.55625,19.31458 l -2.11666,4.49792 7.67291,-0.52917 12.96459,0.26459 -2.11667,-4.23334 c 3.00858,-1.16893 4.16613,-4.95035 3.77481,-7.9375 -0.64664,-4.93702 -4.42198,-9.93304 -9.33106,-11.37708 0.60352,-0.73702 1.09458,-1.44452 1.34091,-2.38125 1.60867,-6.11534 -8.92355,-6.55751 -7.86731,-0.26458 0.16603,0.98904 0.73216,1.80231 1.23473,2.64583 m 3.70417,8.20208 c 3.43667,0.002 3.48271,1.85209 0,1.85209 0,0.56179 -0.17621,4.51829 -1.58115,2.74955 -0.52811,-0.66474 -0.0561,-1.68627 -0.69506,-2.32532 -0.6387,-0.6386 -1.67322,-0.15179 -2.32153,-0.69596 -1.62809,-1.36657 2.19956,-1.5803 2.74566,-1.58036 2.6e-4,-3.37343 1.85182,-3.37343 1.85208,0 m -7.36894,10.21371 c 1.01018,-0.44211 2.58236,-0.15954 3.66477,-0.15954 2.6416,0 5.29696,-0.0791 7.93724,0.004 0.67151,0.0212 2.82337,0.635 1.49198,1.57718 -0.75459,0.53393 -2.20609,0.27093 -3.07922,0.27093 -2.63842,0 -7.88085,1.02103 -10.23342,-0.15954 -0.75319,-0.37809 -0.42479,-1.25121 0.21865,-1.533 m 16.62936,5.92588 c -1.25254,1.27899 -3.61236,0.79375 -5.29167,0.79375 -4.69503,0 -11.21325,1.1557 -15.61042,-0.52917 0.0738,3.55891 3.08761,4.88474 6.35,5.02708 v 0.26459 c -2.77344,0.51488 -5.65197,0.52811 -8.46666,0.52916 -2.33717,8e-4 -5.23256,0.18283 -7.14254,1.69175 -1.53969,1.21602 -2.14421,3.35518 0.26358,4.01426 2.39363,0.65537 5.91397,-0.67892 8.46646,-0.67892 3.73888,0 7.42214,-0.44397 11.1125,-0.53499 3.95076,-0.0976 8.1444,0.53499 12.17083,0.53499 2.33839,0 4.87389,1.03002 7.14375,0.74268 0.91943,-0.11641 2.21298,-0.70194 2.21298,-1.80234 0,-1.51791 -2.35797,-2.70483 -3.5359,-3.20543 -4.15078,-1.7645 -9.15167,-0.25744 -13.49375,-1.29116 V 244.687 c 2.77151,-0.12091 7.33372,-1.68486 5.82084,-5.29166 z"
       id="path92682" />
    <path
       style="fill:#ffffff;stroke-width:0.454148"
       d="m 78.698825,75.673501 c -0.74196,-0.78978 -1.135328,-1.974347 -1.426991,-4.297161 -0.628312,-5.003902 -1.397105,-5.770143 -6.422474,-6.40115 -3.668224,-0.460599 -5.705253,-1.858966 -5.169044,-3.548413 0.410995,-1.294929 4.692222,-2.814447 7.980585,-2.832516 3.205179,-0.01761 3.495159,-0.267483 3.839172,-3.308159 0.583238,-5.155143 2.450519,-7.689788 4.245609,-5.762985 1.117823,1.199842 1.906475,3.878867 1.906475,6.476233 0,2.304573 -0.614643,1.978304 5.374294,2.85282 2.278122,0.332655 4.720804,1.827705 4.534384,2.775281 -0.275487,1.400295 -2.373619,2.417934 -6.103177,2.96017 l -3.687939,0.536185 -0.230837,3.700019 c -0.270086,4.329149 -1.616683,7.940024 -2.96106,7.940024 -0.470068,0 -1.315616,-0.490657 -1.878997,-1.090348 z"
       id="path150"
       transform="matrix(0.26458333,0,0,0.26458333,184.39775,207.88323)" />
    <path
       style="fill:#ffffff;stroke-width:0.454148"
       d="m 62.988424,104.17834 c -0.499563,-0.10074 -2.070887,-0.40886 -3.491831,-0.68469 -4.622325,-0.8973 -6.20155,-2.51724 -4.873352,-4.999002 1.202317,-2.24655 2.244701,-2.339547 25.074935,-2.237086 22.812304,0.102381 24.525844,0.259291 26.567774,2.432824 0.92813,0.987952 0.94366,1.116054 0.25459,2.099844 -1.35063,1.92829 -3.20069,2.31349 -11.159486,2.32351 -4.066971,0.005 -10.868724,0.30897 -15.115007,0.67523 -7.243536,0.62477 -15.20014,0.80429 -17.257623,0.38937 z"
       id="path152"
       transform="matrix(0.26458333,0,0,0.26458333,184.39775,207.88323)" />
    <path
       style="fill:none;stroke:#000000;stroke-width:0.01;stroke-linecap:butt;stroke-linejoin:miter;stroke-opacity:1;stroke-miterlimit:4;stroke-dasharray:none"
       d="m 195.00821,239.65992 0.26459,-0.79378"
       id="path983" />
    <path
       style="fill:none;stroke:#000000;stroke-width:0.01;stroke-linecap:butt;stroke-linejoin:miter;stroke-opacity:1;stroke-miterlimit:4;stroke-dasharray:none"
       d="m 215.9103,238.60156 v 0.79378"
       id="path985" />
    <path
       style="fill:#ffffff;stroke-width:0.0169823;stroke-miterlimit:4;stroke-dasharray:none"
       d="m 52.902706,122.77183 c -3.570409,-0.41517 -10.763033,-2.00899 -11.699357,-2.59249 -0.37875,-0.23602 -0.483124,-0.78294 -0.293557,-1.53824 0.363101,-1.4467 -0.155897,-1.37257 17.506186,-2.5007 12.41495,-0.79298 15.325172,-0.82053 36.844419,-0.34881 l 23.364753,0.51218 0.13825,1.42616 c 0.12251,1.26371 -0.0822,1.55507 -1.79729,2.55777 -2.75386,1.61002 -6.49556,2.06577 -14.62058,1.78083 -4.310798,-0.15118 -11.85317,0.0351 -19.261822,0.47563 -12.893843,0.76675 -24.774213,0.85637 -30.181002,0.22767 z"
       id="path987"
       transform="matrix(0.26458333,0,0,0.26458333,184.39775,207.88323)" />
  </g>
</svg>
