<?xml version="1.0" encoding="UTF-8" standalone="no"?>
<svg
   xmlns:dc="http://purl.org/dc/elements/1.1/"
   xmlns:cc="http://creativecommons.org/ns#"
   xmlns:rdf="http://www.w3.org/1999/02/22-rdf-syntax-ns#"
   xmlns:svg="http://www.w3.org/2000/svg"
   xmlns="http://www.w3.org/2000/svg"
   xmlns:sodipodi="http://sodipodi.sourceforge.net/DTD/sodipodi-0.dtd"
   xmlns:inkscape="http://www.inkscape.org/namespaces/inkscape"
   width="43.607632mm"
   height="43.672764mm"
   viewBox="0 0 43.607632 43.672763"
   version="1.1"
   id="svg1162"
   inkscape:version="1.0.1 (3bc2e81, 2020-09-07)"
   sodipodi:docname="bk.svg">
  <defs
     id="defs1156" />
  <sodipodi:namedview
     id="base"
     pagecolor="#ffffff"
     bordercolor="#666666"
     borderopacity="1.0"
     inkscape:pageopacity="0.0"
     inkscape:pageshadow="2"
     inkscape:zoom="2.2019255"
     inkscape:cx="228.90721"
     inkscape:cy="55.376288"
     inkscape:document-units="mm"
     inkscape:current-layer="layer1"
     inkscape:document-rotation="0"
     showgrid="false"
     inkscape:window-width="1338"
     inkscape:window-height="696"
     inkscape:window-x="14"
     inkscape:window-y="58"
     inkscape:window-maximized="0" />
  <metadata
     id="metadata1159">
    <rdf:RDF>
      <cc:Work
         rdf:about="">
        <dc:format>image/svg+xml</dc:format>
        <dc:type
           rdf:resource="http://purl.org/dc/dcmitype/StillImage" />
        <dc:title></dc:title>
      </cc:Work>
    </rdf:RDF>
  </metadata>
  <g
     inkscape:label="Layer 1"
     inkscape:groupmode="layer"
     id="layer1"
     transform="translate(-156.72001,-211.85978)">
    <path
       style="fill:#060606;stroke:none;stroke-width:0.264583"
       d="m 177.4873,213.95262 c -3.43296,3.7e-4 -3.43296,1.85171 0,1.85208 v 3.43958 c -3.58732,0.7238 -4.02219,4.41873 -3.96875,7.40834 -3.728,-2.06727 -8.26939,-3.98955 -12.4352,-1.74287 -7.60825,4.10327 -4.32528,14.71036 2.64562,17.35328 l 0.26458,-0.26458 v -0.52917 c -2.28491,-1.43324 -4.70212,-3.29882 -5.84615,-5.82083 -1.87582,-4.13491 0.55663,-9.14667 5.0524,-10.17871 5.94204,-1.364 11.95523,3.22059 15.08125,7.79746 h 0.26459 c 2.62387,-3.84246 6.54235,-7.37365 11.37708,-7.89157 4.2799,-0.45847 9.62872,2.16673 9.49061,7.09782 -0.1061,3.79995 -3.26602,6.51245 -6.046,8.61907 -0.77232,0.58499 -1.63063,2.00607 -2.65589,2.04152 -1.54728,0.0532 -3.71766,-1.32291 -5.28664,-1.69545 -3.43032,-0.81412 -7.06755,-0.98028 -10.58333,-0.73924 -2.31772,0.15875 -4.67053,0.64346 -6.87917,1.35043 -1.45224,0.46487 -2.67634,1.29699 -4.23333,1.007 v 3.43959 c 8.56091,-4.6953 19.71754,-4.52041 28.31042,0 0,-0.98531 -0.27067,-2.46936 0.27199,-3.33931 0.63579,-1.01944 2.23388,-1.73672 3.16759,-2.48258 2.05052,-1.63778 3.83619,-3.76132 4.51803,-6.34895 2.54211,-9.65044 -10.21266,-12.29516 -16.42428,-8.20208 -0.003,-4.6596 -4.23333,-6.08809 -4.23333,-10.31875 3.43297,-3.7e-4 3.43297,-1.85171 0,-1.85208 -0.01,-2.79046 -1.8423,-2.79046 -1.85209,0 m 0,24.87083 c 0,-1.31154 0.1651,-2.73473 -0.36168,-3.96875 -2.13638,-5.00708 -11.85572,-11.09779 -16.51225,-5.8094 -3.38532,3.8446 0.97666,11.30268 5.76143,11.47069 1.33771,0.0468 2.92114,-0.76174 4.23334,-1.05119 2.29311,-0.50562 4.54019,-0.64135 6.87916,-0.64135 m 1.85209,0 c 3.5814,0.002 7.21466,2.02644 10.58333,1.95712 4.4495,-0.0915 9.78376,-7.6282 6.52383,-11.47069 -6.13198,-7.22746 -17.10716,2.56985 -17.10716,9.51357 m -15.61042,8.46667 v 3.43958 c 9.6674,-4.02484 18.63566,-4.02272 28.31042,0 v -3.43958 c -2.21298,0.82285 -5.59303,-1.3163 -7.9375,-1.7399 -4.27461,-0.77232 -8.69768,-0.82974 -12.96459,0.0638 -2.19109,0.45879 -5.28314,2.35929 -7.40833,1.67614 m 1.05833,4.7625 c 1.14568,1.74889 4.40767,2.35426 6.35,2.7514 6.32751,1.29381 13.84009,1.04405 19.57917,-2.22224 v -0.52916 c -9.11225,-3.73751 -16.81406,-2.62493 -25.92917,0 z"
       id="path92614" />
  </g>
</svg>
