<?xml version="1.0" encoding="UTF-8" standalone="no"?>
<svg
   xmlns:dc="http://purl.org/dc/elements/1.1/"
   xmlns:cc="http://creativecommons.org/ns#"
   xmlns:rdf="http://www.w3.org/1999/02/22-rdf-syntax-ns#"
   xmlns:svg="http://www.w3.org/2000/svg"
   xmlns="http://www.w3.org/2000/svg"
   xmlns:sodipodi="http://sodipodi.sourceforge.net/DTD/sodipodi-0.dtd"
   xmlns:inkscape="http://www.inkscape.org/namespaces/inkscape"
   width="43.607632mm"
   height="43.672764mm"
   viewBox="0 0 43.607632 43.672763"
   version="1.1"
   id="svg1162"
   inkscape:version="1.0.1 (3bc2e81, 2020-09-07)"
   sodipodi:docname="bk.svg">
  <defs
     id="defs1156" />
  <sodipodi:namedview
     id="base"
     pagecolor="#ffffff"
     bordercolor="#666666"
     borderopacity="1.0"
     inkscape:pageopacity="0.0"
     inkscape:pageshadow="2"
     inkscape:zoom="2.7767028"
     inkscape:cx="72.523102"
     inkscape:cy="144.40531"
     inkscape:document-units="mm"
     inkscape:current-layer="layer1"
     inkscape:document-rotation="0"
     showgrid="false"
     inkscape:window-width="1338"
     inkscape:window-height="696"
     inkscape:window-x="14"
     inkscape:window-y="58"
     inkscape:window-maximized="0"
     inkscape:pagecheckerboard="true" />
  <metadata
     id="metadata1159">
    <rdf:RDF>
      <cc:Work
         rdf:about="">
        <dc:format>image/svg+xml</dc:format>
        <dc:type
           rdf:resource="http://purl.org/dc/dcmitype/StillImage" />
        <dc:title></dc:title>
      </cc:Work>
    </rdf:RDF>
  </metadata>
  <g
     inkscape:label="Layer 1"
     inkscape:groupmode="layer"
     id="layer1"
     transform="translate(-156.72001,-211.85978)">
    <path
       style="fill:#060606;stroke:none;stroke-width:0.264583"
       d="m 177.4873,213.95262 c -3.43296,3.7e-4 -3.43296,1.85171 0,1.85208 v 3.43958 c -3.58732,0.7238 -4.02219,4.41873 -3.96875,7.40834 -3.728,-2.06727 -8.26939,-3.98955 -12.4352,-1.74287 -7.60825,4.10327 -4.32528,14.71036 2.64562,17.35328 l 0.26458,-0.26458 v -0.52917 c -2.28491,-1.43324 -4.70212,-3.29882 -5.84615,-5.82083 -1.87582,-4.13491 0.55663,-9.14667 5.0524,-10.17871 5.94204,-1.364 11.95523,3.22059 15.08125,7.79746 h 0.26459 c 2.62387,-3.84246 6.54235,-7.37365 11.37708,-7.89157 4.2799,-0.45847 9.62872,2.16673 9.49061,7.09782 -0.1061,3.79995 -3.26602,6.51245 -6.046,8.61907 -0.77232,0.58499 -1.63063,2.00607 -2.65589,2.04152 -1.54728,0.0532 -3.71766,-1.32291 -5.28664,-1.69545 -3.43032,-0.81412 -7.06755,-0.98028 -10.58333,-0.73924 -2.31772,0.15875 -4.67053,0.64346 -6.87917,1.35043 -1.45224,0.46487 -2.67634,1.29699 -4.23333,1.007 v 3.43959 c 8.56091,-4.6953 19.71754,-4.52041 28.31042,0 0,-0.98531 -0.27067,-2.46936 0.27199,-3.33931 0.63579,-1.01944 2.23388,-1.73672 3.16759,-2.48258 2.05052,-1.63778 3.83619,-3.76132 4.51803,-6.34895 2.54211,-9.65044 -10.21266,-12.29516 -16.42428,-8.20208 -0.003,-4.6596 -4.23333,-6.08809 -4.23333,-10.31875 3.43297,-3.7e-4 3.43297,-1.85171 0,-1.85208 -0.01,-2.79046 -1.8423,-2.79046 -1.85209,0 m 0,24.87083 c 0,-1.31154 0.1651,-2.73473 -0.36168,-3.96875 -2.13638,-5.00708 -11.85572,-11.09779 -16.51225,-5.8094 -3.38532,3.8446 0.97666,11.30268 5.76143,11.47069 1.33771,0.0468 2.92114,-0.76174 4.23334,-1.05119 2.29311,-0.50562 4.54019,-0.64135 6.87916,-0.64135 m 1.85209,0 c 3.5814,0.002 7.21466,2.02644 10.58333,1.95712 4.4495,-0.0915 9.78376,-7.6282 6.52383,-11.47069 -6.13198,-7.22746 -17.10716,2.56985 -17.10716,9.51357 m -15.61042,8.46667 v 3.43958 c 9.6674,-4.02484 18.63566,-4.02272 28.31042,0 v -3.43958 c -2.21298,0.82285 -5.59303,-1.3163 -7.9375,-1.7399 -4.27461,-0.77232 -8.69768,-0.82974 -12.96459,0.0638 -2.19109,0.45879 -5.28314,2.35929 -7.40833,1.67614 m 1.05833,4.7625 c 1.14568,1.74889 4.40767,2.35426 6.35,2.7514 6.32751,1.29381 13.84009,1.04405 19.57917,-2.22224 v -0.52916 c -9.11225,-3.73751 -16.81406,-2.62493 -25.92917,0 z"
       id="path92614" />
    <path
       style="fill:none;stroke:#000000;stroke-width:0.01;stroke-linecap:butt;stroke-linejoin:miter;stroke-opacity:1;stroke-miterlimit:4;stroke-dasharray:none"
       d="m 163.99355,241.99845 -0.26458,1.05833"
       id="path1019" />
    <path
       style="fill:none;stroke:#000000;stroke-width:0.01;stroke-linecap:butt;stroke-linejoin:miter;stroke-opacity:1;stroke-miterlimit:4;stroke-dasharray:none"
       d="m 192.03939,246.49637 v 0.79375"
       id="path1021" />
    <path
       style="fill:none;stroke:#000000;stroke-width:0.01;stroke-linecap:butt;stroke-linejoin:miter;stroke-opacity:1;stroke-miterlimit:4;stroke-dasharray:none"
       d="m 192.03939,250.7297 -1.32292,1.32296"
       id="path1023" />
    <path
       style="fill:none;stroke:#000000;stroke-width:0.01;stroke-linecap:butt;stroke-linejoin:miter;stroke-opacity:1;stroke-miterlimit:4;stroke-dasharray:none"
       d="m 163.72897,250.7297 1.05833,1.32296"
       id="path1025" />
    <path
       style="fill:none;stroke:#000000;stroke-width:0.01;stroke-linecap:butt;stroke-linejoin:miter;stroke-opacity:1;stroke-miterlimit:4;stroke-dasharray:none"
       d="m 163.72897,246.49637 v 0.79375"
       id="path1027" />
    <path
       style="fill:#ffffff;stroke-width:0.00641768;stroke-miterlimit:4;stroke-dasharray:none"
       d="m 28.664476,149.4126 c -1.054643,-1.31783 -1.884596,-2.42899 -1.844339,-2.46925 0.15487,-0.15487 4.418348,-1.8373 7.256017,-2.86334 12.272871,-4.43758 23.338049,-6.92332 36.082759,-8.10583 3.750561,-0.348 16.851966,-0.29232 20.715749,0.088 13.490788,1.32803 25.951768,4.38566 39.371638,9.66085 l 3.03418,1.1927 -2.42744,2.43177 -2.42743,2.43177 -0.60674,-0.25536 c -1.85548,-0.7809 -6.82539,-2.55207 -9.62787,-3.43116 -7.92651,-2.4864 -15.54461,-4.03061 -24.175016,-4.90036 -4.302893,-0.43363 -16.545693,-0.43244 -21.225152,0.002 -11.946214,1.10925 -22.851697,3.23885 -38.101837,7.44045 -2.0444,0.56326 -3.804817,1.05777 -3.912038,1.09891 -0.10722,0.0412 -1.057837,-1.00341 -2.112481,-2.32124 z"
       id="path1592"
       transform="matrix(0.26458333,0,0,0.26458333,156.72001,211.85978)" />
    <path
       style="fill:#ffffff;stroke-width:0.00641768;stroke-miterlimit:4;stroke-dasharray:none"
       d="m 126.70272,134.35927 c -2.93568,-0.40307 -6.22056,-1.39367 -13.44422,-4.05427 -6.81656,-2.51067 -8.15112,-2.87008 -13.723976,-3.69605 -15.48046,-2.2944 -29.709255,-2.10264 -43.508373,0.58635 -3.362275,0.65519 -5.041446,1.16432 -10.533685,3.19383 -8.489348,3.137 -10.736254,3.7356 -14.472734,3.85565 -1.696662,0.0545 -2.752463,0.01 -3.396024,-0.14349 l -0.933907,-0.2226 -0.049,-1.47803 -0.049,-1.47804 3.064311,-1.53395 c 12.043096,-6.0286 24.366276,-9.49589 39.059491,-10.98991 3.74247,-0.38054 17.094488,-0.4361 20.630848,-0.0858 15.404099,1.52567 28.296549,5.00798 40.546189,10.95172 l 3.52953,1.71259 -0.0486,1.45429 -0.0486,1.45429 -1.10371,0.28556 c -1.04517,0.27042 -4.14808,0.37608 -5.51854,0.18791 z"
       id="path1594"
       transform="matrix(0.26458333,0,0,0.26458333,156.72001,211.85978)" />
    <path
       style="fill:#ffffff;stroke-width:0.00641768;stroke-miterlimit:4;stroke-dasharray:none"
       d="m 125.93861,117.90202 c -2.08059,-0.38249 -4.77375,-1.31294 -9.50886,-3.28517 -5.38871,-2.24445 -6.85607,-2.72261 -10.91977,-3.55835 -9.646338,-1.98387 -20.4585,-2.821 -31.168158,-2.41322 -7.899576,0.30079 -12.603521,0.80299 -18.662582,1.99245 -6.255387,1.22799 -12.327891,2.9396 -17.03185,4.80063 -5.43005,2.14829 -7.561501,2.67255 -10.327874,2.54029 -0.844674,-0.0404 -1.571969,-0.10962 -1.616212,-0.15387 -0.04424,-0.0442 0.143076,-0.95683 0.416264,-2.02798 0.273188,-1.07115 0.498379,-2.38662 0.500423,-2.92325 l 0.0037,-0.97571 -2.164966,-1.42341 C 13.937227,102.89929 7.0135512,95.166962 4.3817538,86.935758 2.2065755,80.132675 2.8036388,72.756158 6.0515128,66.306448 l 0.9413471,-1.869351 4.0425991,-0.04555 4.0426,-0.04555 -0.916025,1.149254 c -2.774007,3.480299 -4.025508,7.260606 -4.027169,12.164542 -0.0026,7.694545 3.744295,16.24009 9.874372,22.520447 4.063058,4.16267 8.64781,6.8376 13.398984,7.81751 1.480184,0.30529 2.148756,0.35144 4.063958,0.28058 2.758369,-0.10206 3.974504,-0.3858 9.867817,-2.30225 5.457936,-1.77488 9.877478,-2.66372 16.536272,-3.32571 3.737367,-0.37155 8.200866,-0.60231 11.65022,-0.60231 h 3.037586 l 0.04245,-2.334767 C 78.752716,91.672754 78.324788,88.915632 76.32699,85.026328 74.431944,81.337062 71.902743,78.033955 67.96651,74.107631 64.341878,70.492124 60.602438,67.543164 55.877901,64.574433 c -0.253271,-0.159147 0.813643,-0.204394 5.00477,-0.212251 l 5.326662,-0.01 1.714225,1.485761 c 2.260372,1.959119 6.001137,5.72311 8.032326,8.082194 1.624511,1.886756 5.103564,6.400807 5.272493,6.841025 0.05258,0.137015 0.341932,0.23154 0.708777,0.23154 0.595205,0 0.672386,-0.07394 1.935296,-1.853991 3.034244,-4.276719 6.283722,-8.038186 10.412697,-12.053324 l 2.810695,-2.733205 5.549268,0.0054 5.54928,0.0054 -0.50881,0.376673 c -3.37626,2.499444 -7.67069,6.528087 -10.356752,9.715741 -6.829043,8.104299 -10.972745,16.894637 -11.794822,25.02122 -0.285368,2.820974 -0.535524,2.504144 2.071982,2.624204 4.039689,0.186 8.583133,1.06289 15.621202,3.01489 6.91869,1.91889 11.91981,3.15409 14.82074,3.66048 2.37147,0.41397 3.15919,0.47431 6.27757,0.48091 3.39254,0.007 3.6479,-0.0154 5.25466,-0.46423 11.32325,-3.16319 22.45665,-16.400336 24.21833,-28.794582 0.12358,-0.869431 0.1673,-2.414782 0.11291,-3.990328 -0.0728,-2.108953 -0.16984,-2.846195 -0.53952,-4.099583 -0.79509,-2.695701 -1.87112,-4.631401 -3.66659,-6.595936 l -0.87759,-0.960218 h 4.24437 4.24437 l 0.51381,0.806556 c 1.33125,2.089716 2.43941,4.850264 3.03201,7.553067 0.42926,1.957772 0.42631,7.043343 -0.005,9.208643 -1.84306,9.245595 -7.99343,17.309168 -20.7459,27.199351 -1.28105,0.99352 -3.46258,2.96703 -5.17894,4.6851 -2.60885,2.61146 -3.12091,3.04449 -4.2574,3.6004 -1.56045,0.76328 -2.6592,0.87851 -4.73607,0.49671 z"
       id="path1596"
       transform="matrix(0.26458333,0,0,0.26458333,156.72001,211.85978)" />
    <path
       style="fill:#ffffff;stroke-width:0.00641768;stroke-miterlimit:4;stroke-dasharray:none"
       d="m 27.793509,118.00436 c -1.222102,-0.10714 -1.193653,-0.0119 -0.658839,-2.20438 0.26897,-1.10263 0.489038,-2.43152 0.489038,-2.9531 v -0.94832 l -2.334767,-1.53463 C 19.118913,106.30841 13.585021,101.56006 10.316714,97.517019 4.100675,89.8275 1.8650417,81.523064 3.7074882,72.966528 4.8714539,67.560935 7.4012897,62.945975 11.402777,58.928681 c 4.664757,-4.683184 9.777372,-7.123644 16.900136,-8.067128 2.057143,-0.27249 6.71654,-0.272251 8.914564,4.56e-4 7.619408,0.945339 15.456154,4.035055 23.008065,9.071163 7.126807,4.752622 14.386772,11.727888 19.501373,18.736629 1.569766,2.151115 1.664614,2.246159 2.249151,2.253807 0.581457,0.0076 0.665524,-0.07019 1.780352,-1.647578 0.643543,-0.910559 2.05927,-2.763515 3.146057,-4.117679 C 97.96208,61.3778 111.05019,53.067166 124.46155,51.309239 c 2.4972,-0.327327 7.08403,-0.335372 9.45772,-0.01659 8.21852,1.103736 15.47491,4.507641 20.50656,9.619426 1.96377,1.995051 3.27009,3.809188 4.45058,6.180717 1.80041,3.616896 2.47453,6.821938 2.32146,11.037079 -0.38259,10.535602 -6.64596,19.821898 -20.67616,30.655199 -1.28867,0.99503 -3.4487,2.92903 -4.98933,4.46721 -3.03828,3.03348 -4.24328,4.00269 -5.61409,4.51558 -2.26912,0.84898 -5.46594,0.15816 -12.27263,-2.65209 -7.18629,-2.96696 -8.22516,-3.30143 -13.3567,-4.30015 -8.018379,-1.56058 -15.291473,-2.20749 -24.788081,-2.20479 -7.911418,0.002 -12.589166,0.28625 -18.426331,1.1187 -7.733917,1.10296 -16.455426,3.32516 -22.413761,5.71093 -5.332914,2.13535 -8.156615,2.80154 -10.867278,2.5639 z m 101.794931,-9.21029 c 10.70511,-3.00548 21.3476,-15.076061 23.96718,-27.183273 0.48128,-2.224377 0.43744,-7.557732 -0.0775,-9.423968 -0.79364,-2.876485 -2.2215,-5.26092 -4.727,-7.893776 -3.52456,-3.703707 -8.00152,-6.300929 -12.77538,-7.411383 -2.49687,-0.580802 -6.59409,-0.724044 -9.40904,-0.328948 -3.8631,0.542211 -7.35029,1.660494 -11.41049,3.659155 -10.92629,5.378533 -21.285327,16.231874 -26.420846,27.681565 -1.117289,2.491008 -2.228412,5.87057 -2.679684,8.150458 -0.385208,1.946116 -0.777618,5.50961 -0.632564,5.74432 0.04995,0.0808 0.946594,0.19892 1.992548,0.26244 4.896181,0.29738 8.481615,1.03986 19.250486,3.98645 10.06466,2.75391 12.92986,3.25882 18.08383,3.18676 2.99446,-0.0419 3.67063,-0.10194 4.83843,-0.4298 z m -91.106131,-0.53173 c 2.130788,-0.21866 3.991032,-0.69615 8.626454,-2.21424 4.038297,-1.32253 6.006348,-1.82225 9.571866,-2.43042 5.364802,-0.91509 10.637355,-1.38987 17.403441,-1.56717 l 4.434561,-0.1162 0.08875,-2.902754 C 78.730856,94.992834 78.50005,91.4104 77.985751,89.382967 75.701261,80.377242 64.574951,68.856312 52.003758,62.479466 44.580132,58.713767 37.638485,56.943438 31.359335,57.214517 c -6.42038,0.277176 -11.466775,2.395988 -15.625874,6.560778 -4.079012,4.084593 -5.7764147,8.602043 -5.547276,14.763462 0.153974,4.1403 1.122989,7.913747 3.064371,11.932994 4.691654,9.713139 13.176833,16.691659 21.612588,17.774979 1.649559,0.21184 1.704672,0.21207 3.619165,0.0156 z"
       id="path1598"
       transform="matrix(0.26458333,0,0,0.26458333,156.72001,211.85978)" />
  </g>
</svg>
