<?xml version="1.0" encoding="UTF-8" standalone="no"?>
<svg
   xmlns:dc="http://purl.org/dc/elements/1.1/"
   xmlns:cc="http://creativecommons.org/ns#"
   xmlns:rdf="http://www.w3.org/1999/02/22-rdf-syntax-ns#"
   xmlns:svg="http://www.w3.org/2000/svg"
   xmlns="http://www.w3.org/2000/svg"
   xmlns:sodipodi="http://sodipodi.sourceforge.net/DTD/sodipodi-0.dtd"
   xmlns:inkscape="http://www.inkscape.org/namespaces/inkscape"
   width="42.162411mm"
   height="42.081711mm"
   viewBox="0 0 42.162411 42.08171"
   version="1.1"
   id="svg1162"
   inkscape:version="1.0.1 (3bc2e81, 2020-09-07)"
   sodipodi:docname="bn.svg">
  <defs
     id="defs1156" />
  <sodipodi:namedview
     id="base"
     pagecolor="#ffffff"
     bordercolor="#666666"
     borderopacity="1.0"
     inkscape:pageopacity="0.0"
     inkscape:pageshadow="2"
     inkscape:zoom="2.2019255"
     inkscape:cx="29.732912"
     inkscape:cy="70.685186"
     inkscape:document-units="mm"
     inkscape:current-layer="layer1"
     inkscape:document-rotation="0"
     showgrid="false"
     inkscape:window-width="1338"
     inkscape:window-height="696"
     inkscape:window-x="14"
     inkscape:window-y="58"
     inkscape:window-maximized="0"
     inkscape:pagecheckerboard="true" />
  <metadata
     id="metadata1159">
    <rdf:RDF>
      <cc:Work
         rdf:about="">
        <dc:format>image/svg+xml</dc:format>
        <dc:type
           rdf:resource="http://purl.org/dc/dcmitype/StillImage" />
        <dc:title></dc:title>
      </cc:Work>
    </rdf:RDF>
  </metadata>
  <g
     inkscape:label="Layer 1"
     inkscape:groupmode="layer"
     id="layer1"
     transform="translate(-182.17486,-201.02675)">
    <path
       style="fill:#030303;stroke:none;stroke-width:0.264583"
       d="m 188.00244,231.53452 c 0.84603,1.50786 2.54058,1.67587 3.92364,0.62097 1.33956,-1.02155 2.21268,-2.62387 3.48491,-3.74729 2.64858,-2.33865 5.66904,-4.15131 8.20187,-6.66327 -0.0691,8.32512 -10.36979,11.3882 -10.04885,19.57785 0.0991,2.52915 4.52276,1.58882 6.34468,1.58882 h 17.72708 c 1.43828,0 5.11122,0.65484 6.19046,-0.42413 0.7964,-0.79666 0.42413,-2.78262 0.42413,-3.8092 0,-3.60601 -0.21273,-7.27552 -0.72205,-10.84792 -1.09405,-7.6745 -3.37582,-15.83272 -10.39045,-20.15733 -2.63711,-1.62587 -5.81316,-1.60663 -8.40634,-2.99739 -1.40097,-0.75142 -0.66887,-3.50419 -2.71013,-3.64434 -2.1481,-0.14748 -2.70542,3.3475 -4.51477,3.3475 -1.93162,0 -2.61006,-3.74208 -4.97748,-2.84305 -2.2552,0.85646 -0.17317,4.75869 -1.21187,6.45475 -3.04826,4.97745 -8.36282,11.20749 -9.08687,17.19403 -0.43239,3.57505 1.67552,7.55808 5.77204,6.35 m 34.66042,11.1125 h -2.91042 c 0,-11.8872 1.12739,-31.07016 -14.02292,-34.66042 l 0.52917,-1.85208 c 5.75945,0.47043 10.02109,4.56565 12.50077,9.525 4.20026,8.40052 3.9034,17.84905 3.9034,26.9875 m -28.31449,-32.61194 c 2.50235,-0.31263 0.88384,4.84389 -1.31374,4.89644 -2.61051,0.0624 -0.49366,-4.67064 1.31374,-4.89644 m 9.52907,11.44527 -0.26458,0.26458 0.26458,-0.26458 m -17.43392,2.23652 c 1.85573,-0.48471 2.60934,2.31034 0.7517,2.69478 -1.75776,0.36381 -2.48576,-2.24181 -0.7517,-2.69478 z"
       id="path92716" />
    <path
       style="fill:#ffffff;stroke-width:0.454148"
       d="m 142.00511,133.92529 c -0.29233,-29.39967 -1.30027,-39.933221 -5.34598,-55.868919 -6.84836,-26.975053 -20.80792,-43.58695 -42.432474,-50.494696 -2.495212,-0.79707 -4.604453,-1.516923 -4.687204,-1.599674 -0.08275,-0.08275 0.272976,-1.57226 0.790504,-3.310022 l 0.940959,-3.159566 3.792639,0.607322 c 17.211176,2.756055 32.521566,15.263295 42.465126,34.690272 7.90336,15.440995 11.93435,30.764292 14.1571,53.816533 0.60554,6.27997 1.35447,39.07038 1.01395,44.39297 l -0.25424,3.97379 h -5.10561 -5.1056 z"
       id="path1600"
       transform="matrix(0.26458333,0,0,0.26458333,182.17486,201.02675)" />
    <path
       style="fill:#ffffff;stroke-width:0.454148"
       d="m 39.619679,52.188338 c -0.557031,-0.101211 -1.425589,-0.708817 -1.930129,-1.350235 -3.338367,-4.244046 3.425561,-16.484755 9.109088,-16.484755 7.174624,0 2.543293,16.393074 -5.030805,17.807051 -0.624453,0.116577 -1.591122,0.129149 -2.148154,0.02794 z"
       id="path1602"
       transform="matrix(0.26458333,0,0,0.26458333,182.17486,201.02675)" />
    <path
       style="fill:#ffffff;stroke-width:0.454148"
       d="m 15.07156,94.954534 c -1.316682,-0.92224 -2.369197,-2.991194 -2.369197,-4.657186 0,-3.1172 3.923723,-5.392053 6.880375,-3.98903 2.629114,1.247597 3.920927,4.722098 2.64327,7.109422 -1.089907,2.036509 -5.185114,2.916169 -7.154448,1.536794 z"
       id="path1604"
       transform="matrix(0.26458333,0,0,0.26458333,182.17486,201.02675)" />
  </g>
</svg>
