<?xml version="1.0" encoding="UTF-8" standalone="no"?>
<svg
   xmlns:dc="http://purl.org/dc/elements/1.1/"
   xmlns:cc="http://creativecommons.org/ns#"
   xmlns:rdf="http://www.w3.org/1999/02/22-rdf-syntax-ns#"
   xmlns:svg="http://www.w3.org/2000/svg"
   xmlns="http://www.w3.org/2000/svg"
   xmlns:sodipodi="http://sodipodi.sourceforge.net/DTD/sodipodi-0.dtd"
   xmlns:inkscape="http://www.inkscape.org/namespaces/inkscape"
   width="48.281006mm"
   height="45.097462mm"
   viewBox="0 0 48.281006 45.097461"
   version="1.1"
   id="svg1162"
   inkscape:version="1.0.1 (3bc2e81, 2020-09-07)"
   sodipodi:docname="bq.svg">
  <defs
     id="defs1156" />
  <sodipodi:namedview
     id="base"
     pagecolor="#ffffff"
     bordercolor="#666666"
     borderopacity="1.0"
     inkscape:pageopacity="0.0"
     inkscape:pageshadow="2"
     inkscape:zoom="2.2019255"
     inkscape:cx="219.06581"
     inkscape:cy="61.407469"
     inkscape:document-units="mm"
     inkscape:current-layer="layer1"
     inkscape:document-rotation="0"
     showgrid="false"
     inkscape:window-width="1338"
     inkscape:window-height="696"
     inkscape:window-x="14"
     inkscape:window-y="58"
     inkscape:window-maximized="0"
     inkscape:pagecheckerboard="true" />
  <metadata
     id="metadata1159">
    <rdf:RDF>
      <cc:Work
         rdf:about="">
        <dc:format>image/svg+xml</dc:format>
        <dc:type
           rdf:resource="http://purl.org/dc/dcmitype/StillImage" />
        <dc:title></dc:title>
      </cc:Work>
    </rdf:RDF>
  </metadata>
  <g
     inkscape:label="Layer 1"
     inkscape:groupmode="layer"
     id="layer1"
     transform="translate(-159.32388,-210.14387)">
    <path
       style="fill:#050505;stroke:none;stroke-width:0.264583"
       d="m 182.3488,216.86378 -2.91041,13.75833 h -0.26459 l -4.7625,-12.96458 c 3.65181,-1.87267 0.82593,-7.51009 -2.90938,-6.04602 -1.63851,0.64222 -2.46129,2.51145 -2.00298,4.19394 0.37616,1.3808 1.86897,1.73439 2.37146,2.94452 0.40183,0.96766 0.15965,2.3768 0.15965,3.40548 0,2.79905 0.70059,6.70501 -0.52916,9.26041 -1.51096,-3.19471 -4.0209,-7.65971 -6.61459,-10.05416 v -0.26459 c 3.17895,-2.77651 -0.70728,-7.70527 -4.18433,-5.29023 -1.22864,0.85338 -1.66931,2.57005 -1.18594,3.96343 0.57658,1.66203 2.39477,1.61697 3.17053,2.95248 1.54159,2.65396 1.598,7.27147 2.19974,10.28057 0.35928,1.79652 0.3782,3.97166 1.3611,5.55625 0.97846,1.57745 3.23027,2.99376 3.29197,5.02709 0.0776,2.55746 -4.23563,5.10063 -2.34,7.91263 1.28704,1.90923 4.85741,2.30769 6.94735,2.76013 6.04732,1.30916 12.47352,1.30916 18.52083,0 1.78409,-0.38629 4.67572,-0.70406 6.0251,-2.01533 2.76066,-2.68288 -1.81796,-6.20713 -1.39171,-8.92202 0.36962,-2.35294 3.01069,-3.62532 3.7674,-5.82083 1.53564,-4.45638 0.67918,-10.68059 3.05938,-14.77849 0.71966,-1.23883 2.41697,-1.25918 3.06811,-2.69462 2.6035,-5.73791 -8.14123,-6.39143 -6.37752,-0.51977 0.21166,0.70408 0.57467,1.12146 1.10966,1.58871 v 0.26459 c -2.60271,2.38551 -5.10408,6.86051 -6.61458,10.05416 -1.22979,-2.5554 -0.52917,-6.46136 -0.52917,-9.26041 0,-1.02868 -0.24209,-2.43782 0.15954,-3.40548 0.50271,-1.21013 1.99549,-1.56372 2.37146,-2.94452 0.45853,-1.68249 -0.36433,-3.55172 -2.00289,-4.19394 -3.73539,-1.46407 -6.56114,4.17335 -2.90936,6.04602 l -4.7625,12.96458 h -0.26458 l -2.91042,-13.75833 c 3.0734,-1.60877 3.10647,-6.71991 -1.05833,-6.71991 -4.16478,0 -4.13179,5.11114 -1.05834,6.71991 m -0.79375,19.65457 c 4.10131,-0.48392 9.00086,0.27094 12.96459,1.35996 0.55324,0.15214 6.20553,2.03094 3.40016,2.85406 -1.2454,0.36539 -3.47478,-0.84878 -4.72308,-1.14511 -3.14246,-0.74586 -6.31137,-1.034 -9.525,-1.19301 -3.4694,-0.17172 -7.22585,0.48339 -10.58333,1.32292 -1.07154,0.26802 -3.37937,1.51288 -4.41259,0.92736 -1.90384,-1.07897 1.66735,-2.20848 2.29592,-2.38654 3.50634,-0.99404 6.99013,-1.31551 10.58333,-1.73964 m -10.56783,5.59568 c 1.85254,-0.55563 4.40754,-0.11483 6.3345,-0.11483 h 13.75833 c 0.70194,0 7.24562,-0.24792 5.39142,1.65682 -1.08294,1.11231 -4.73895,0.45984 -6.18517,0.45984 h -13.22916 c -1.84976,0 -4.29094,0.41884 -6.06992,-0.11483 -1.14122,-0.3421 -1.14122,-1.5449 0,-1.887 m -1.55971,4.02378 c 2.03673,-0.79666 6.70192,1.39382 8.95254,1.6383 5.92297,0.64373 11.44826,-0.0278 17.19792,-1.50257 0.63553,-0.16298 3.31814,-0.30427 2.16932,1.09723 -0.99272,1.21153 -4.15158,1.47399 -5.6089,1.77112 -5.90709,1.20438 -12.0954,1.08188 -17.99167,-0.10478 -1.45553,-0.29289 -3.12968,-0.58261 -4.46892,-1.24592 -0.68866,-0.34105 -1.26391,-1.25703 -0.25029,-1.65338 m -1.28188,3.7047 c 1.72434,-0.73872 6.21112,1.51077 8.11776,1.83118 7.77954,1.30757 13.91708,-0.56701 21.42992,-1.85949 0.91017,-0.15664 2.1045,0.54292 1.16338,1.48695 -1.20994,1.21365 -4.30266,1.54887 -5.92455,1.89998 -6.29074,1.36181 -12.76459,1.24089 -19.05,-0.0368 -1.7553,-0.35666 -3.93462,-0.7194 -5.51707,-1.58724 -0.62905,-0.34501 -1.12464,-1.34699 -0.21944,-1.7346 z"
       id="path92648" />
    <path
       style="fill:#ffffff;stroke-width:0.454148"
       d="m 34.742979,114.50982 c -2.17424,-1.71026 -1.220892,-3.41307 3.11779,-5.56882 6.621086,-3.2898 18.669855,-5.80249 39.737948,-8.28708 9.076683,-1.070432 11.309233,-1.177932 19.982511,-0.962187 10.145052,0.252355 15.630052,0.924297 26.752282,3.277287 12.47589,2.63936 24.11229,7.68009 24.11229,10.44511 0,1.046 -2.48455,2.03752 -5.08661,2.02993 -1.69109,-0.005 -4.31935,-0.6693 -8.83807,-2.23409 -12.23237,-4.23593 -28.69584,-6.54489 -46.704074,-6.55011 -13.789996,-0.004 -28.075384,2.29494 -40.709488,6.55137 -7.553615,2.54482 -10.40019,2.84378 -12.364579,1.29859 z"
       id="path1608"
       transform="matrix(0.26458333,0,0,0.26458333,159.32388,210.14387)" />
    <path
       style="fill:#ffffff;stroke-width:0.454148"
       d="m 123.46766,128.55365 c -2.99691,-0.24914 -20.3376,-0.35883 -40.688978,-0.25737 -36.964888,0.1843 -38.576227,0.11609 -40.603785,-1.71883 -1.156387,-1.04651 -1.167973,-3.1459 -0.02368,-4.2902 1.963376,-1.96337 2.772362,-1.9976 44.75753,-1.89369 21.980763,0.0544 42.157613,0.29639 44.837453,0.53775 8.62595,0.77688 11.28283,2.53756 8.31208,5.50832 -2.1509,2.15089 -7.67705,2.85505 -16.59062,2.11402 z"
       id="path1610"
       transform="matrix(0.26458333,0,0,0.26458333,159.32388,210.14387)" />
    <path
       style="fill:#ffffff;stroke-width:0.454148"
       d="m 78.961161,149.94321 c -15.402401,-1.22758 -34.657614,-5.11544 -39.563496,-7.98836 -2.124135,-1.2439 -3.449733,-3.17925 -2.844803,-4.15335 0.904282,-1.45614 2.9734,-2.10182 6.530609,-2.03791 3.375003,0.0606 7.517307,1.01181 21.3067,4.89257 7.691243,2.16455 13.421772,2.64947 28.131203,2.38049 15.641436,-0.28603 20.598136,-0.96376 44.343656,-6.06307 3.97907,-0.8545 7.43118,-0.62907 8.62338,0.56313 0.95165,0.95165 0.87941,1.27892 -0.67249,3.04643 -1.57599,1.79495 -4.58581,3.19535 -9.47899,4.41035 -4.07007,1.01062 -20.74894,3.84857 -26.62908,4.531 -5.73655,0.66577 -23.508254,0.91593 -29.746689,0.41872 z"
       id="path1612"
       transform="matrix(0.26458333,0,0,0.26458333,159.32388,210.14387)" />
    <path
       style="fill:#ffffff;stroke-width:0.454148"
       d="m 80.550679,165.80831 c -16.067819,-1.02199 -39.458314,-5.73545 -45.3721,-9.14301 -2.411518,-1.38953 -3.646445,-3.12481 -3.275527,-4.60267 0.913593,-3.64004 6.91116,-3.04848 22.525494,2.22178 8.615778,2.90805 13.111244,3.73821 23.073401,4.26084 14.402658,0.75559 25.751623,-0.42673 51.415493,-5.35638 18.54636,-3.56249 17.45348,-3.42322 19.40004,-2.47225 1.29039,0.6304 1.75426,1.15682 1.86419,2.11559 0.17758,1.54874 -0.43073,2.3419 -3.09831,4.03979 -2.95811,1.8828 -7.7295,3.25368 -18.45568,5.30254 -19.82794,3.78744 -31.633035,4.67969 -48.077001,3.63377 z"
       id="path1614"
       transform="matrix(0.26458333,0,0,0.26458333,159.32388,210.14387)" />
  </g>
</svg>
