<?xml version="1.0" encoding="UTF-8" standalone="no"?>
<svg
   xmlns:dc="http://purl.org/dc/elements/1.1/"
   xmlns:cc="http://creativecommons.org/ns#"
   xmlns:rdf="http://www.w3.org/1999/02/22-rdf-syntax-ns#"
   xmlns:svg="http://www.w3.org/2000/svg"
   xmlns="http://www.w3.org/2000/svg"
   xmlns:sodipodi="http://sodipodi.sourceforge.net/DTD/sodipodi-0.dtd"
   xmlns:inkscape="http://www.inkscape.org/namespaces/inkscape"
   width="36.263462mm"
   height="40.002228mm"
   viewBox="0 0 36.263462 40.002227"
   version="1.1"
   id="svg1162"
   inkscape:version="1.0.1 (3bc2e81, 2020-09-07)"
   sodipodi:docname="br.svg">
  <defs
     id="defs1156" />
  <sodipodi:namedview
     id="base"
     pagecolor="#ffffff"
     bordercolor="#666666"
     borderopacity="1.0"
     inkscape:pageopacity="0.0"
     inkscape:pageshadow="2"
     inkscape:zoom="2.2019255"
     inkscape:cx="29.732912"
     inkscape:cy="70.685186"
     inkscape:document-units="mm"
     inkscape:current-layer="layer1"
     inkscape:document-rotation="0"
     showgrid="false"
     inkscape:window-width="1338"
     inkscape:window-height="696"
     inkscape:window-x="14"
     inkscape:window-y="58"
     inkscape:window-maximized="0"
     inkscape:pagecheckerboard="true" />
  <metadata
     id="metadata1159">
    <rdf:RDF>
      <cc:Work
         rdf:about="">
        <dc:format>image/svg+xml</dc:format>
        <dc:type
           rdf:resource="http://purl.org/dc/dcmitype/StillImage" />
        <dc:title></dc:title>
      </cc:Work>
    </rdf:RDF>
  </metadata>
  <g
     inkscape:label="Layer 1"
     inkscape:groupmode="layer"
     id="layer1"
     transform="translate(-209.41821,-207.68914)">
    <path
       style="fill:#070707;stroke:none;stroke-width:0.264583"
       d="m 213.53539,241.80463 c -0.97311,0 -2.76103,-0.33867 -3.50777,0.42413 -0.93892,0.95938 -0.83984,4.63417 0.62614,5.04798 2.3785,0.67125 5.70206,0.0841 8.1733,0.0841 h 17.4625 c 2.04893,0 6.9125,0.90091 8.61642,-0.27199 1.03425,-0.71173 1.03425,-4.30054 0,-5.01227 -0.81756,-0.56277 -2.37755,-0.27199 -3.32476,-0.27199 0,-1.31286 0.34687,-3.20172 -0.15584,-4.42939 -0.53181,-1.29857 -1.85843,-1.99602 -2.15265,-3.50811 -0.80301,-4.12538 -0.4228,-9.83139 -0.0572,-14.02292 0.1741,-1.99839 2.23759,-2.54447 3.26443,-4.01367 0.89615,-1.28223 0.78158,-5.57231 0.33999,-7.05964 -0.33496,-1.12826 -1.91664,-0.83288 -2.82628,-0.83294 -2.336,-1.6e-4 -3.95896,-0.39819 -3.96875,2.38125 h -4.49791 c -0.002,-0.64127 0.14949,-1.65536 -0.42413,-2.10931 -0.87762,-0.69429 -6.21162,-0.69429 -7.08914,0 -0.57372,0.45395 -0.42196,1.46802 -0.42423,2.10931 h -4.49792 c -0.01,-2.77944 -1.63277,-2.38141 -3.96875,-2.38125 -0.90974,6e-5 -2.49134,-0.29532 -2.82631,0.83294 -0.44156,1.48733 -0.55607,5.77741 0.34013,7.05964 1.02687,1.4692 3.09014,2.01528 3.26443,4.01367 0.36549,4.19153 0.74578,9.89754 -0.0572,14.02292 -0.2943,1.51209 -1.62097,2.20954 -2.15281,3.50811 -0.50276,1.22767 -0.15576,3.11653 -0.15576,4.42939 m 29.10417,-26.9875 v 0.52917 l -7.14375,0.26458 h -13.49375 l -9.525,-0.26458 v -0.52917 l 9.525,-0.26458 h 13.49375 l 7.14375,0.26458 m -3.70417,3.70417 c -4.40558,1.3022 -10.4812,0.26458 -15.08125,0.26458 -2.43284,0 -5.33344,0.42693 -7.67292,-0.26458 0.89337,-1.6201 3.40897,-1.05834 5.02709,-1.05834 h 13.22916 c 1.53644,0 3.65178,-0.47622 4.49792,1.05834 m -22.09475,15.50432 c 1.15401,-0.63156 3.60151,-0.15849 4.89683,-0.15849 h 12.17084 c 0.54292,0 5.47211,-0.21246 4.54236,0.91414 -0.78475,0.95117 -3.94652,0.40878 -5.07153,0.40878 H 220.1499 c -0.363,0 -4.97083,-0.25533 -3.30933,-1.16443 m 23.15308,2.48734 v 1.05834 h -24.87083 v -1.05834 h 24.87083 m 1.32292,5.02709 c -0.57653,1.73699 -3.7764,1.05833 -5.29167,1.05833 h -16.40416 c -1.57449,0 -5.22534,0.73581 -5.82084,-1.05833 z"
       id="path92750" />
    <path
       style="fill:#ffffff;stroke-width:0.454148"
       d="m 33.59317,29.362332 c -5.120519,-0.183465 -12.120074,-0.361739 -15.554568,-0.396166 -5.796314,-0.0581 -6.244535,-0.124142 -6.244535,-0.920073 0,-0.805485 0.65404,-0.881216 10.786014,-1.248907 13.960817,-0.506642 84.213099,-0.508125 94.689849,-0.002 7.27867,0.351627 8.06113,0.46785 8.06113,1.197369 0,0.72354 -0.67605,0.837307 -6.47161,1.08905 -10.10897,0.439105 -74.892936,0.652396 -85.26628,0.280727 z"
       id="path1622"
       transform="matrix(0.26458333,0,0,0.26458333,209.41821,207.68914)" />
    <path
       style="fill:#ffffff;stroke-width:0.454148"
       d="m 72.422821,42.447851 c -2.747595,-0.243039 -12.761558,-0.427033 -22.25325,-0.408875 -17.562608,0.0336 -23.842769,-0.384158 -23.842769,-1.586014 0,-0.741509 2.012405,-2.15905 4.087332,-2.879123 1.982353,-0.687947 73.779566,-0.717685 76.296856,-0.0316 2.15551,0.587479 4.47124,2.48678 3.83086,3.141977 -0.26595,0.272105 -2.00307,0.819731 -3.86025,1.216948 -4.10693,0.878389 -26.473792,1.235312 -34.258779,0.546689 z"
       id="path1624"
       transform="matrix(0.26458333,0,0,0.26458333,209.41821,207.68914)" />
    <path
       style="fill:#ffffff;stroke-width:0.454148"
       d="m 65.837676,103.84908 c -31.055144,-0.30468 -34.70249,-0.50764 -37.787024,-2.10272 -1.061758,-0.54905 -1.227329,-0.81832 -0.811362,-1.31953 0.89978,-1.084171 3.724696,-1.743198 7.262176,-1.694202 1.87336,0.02595 18.93797,0.214527 37.921355,0.419066 29.395009,0.31672 34.717359,0.473853 35.877689,1.059226 1.78065,0.89832 1.72258,1.77631 -0.19142,2.89415 -1.94168,1.134 -2.14909,1.13765 -42.271414,0.74401 z"
       id="path1626"
       transform="matrix(0.26458333,0,0,0.26458333,209.41821,207.68914)" />
    <path
       style="fill:#ffffff;stroke-width:0.454148"
       d="m 21.785322,111.10436 v -1.8166 H 68.562564 115.3398 v 1.8166 1.81659 H 68.562564 21.785322 Z"
       id="path1628"
       transform="matrix(0.26458333,0,0,0.26458333,209.41821,207.68914)" />
    <path
       style="fill:#ffffff;stroke-width:0.454148"
       d="m 24.283136,132.15302 c -3.749922,-0.58597 -7.039293,-2.16066 -7.039293,-3.36986 0,-0.25633 20.086484,-0.42118 51.318721,-0.42118 28.225296,0 51.318716,0.17269 51.318716,0.38376 0,0.49523 -1.28051,1.60775 -2.72488,2.36739 -0.91223,0.47977 -9.43641,0.60831 -43.371135,0.654 -23.229668,0.0313 -43.564144,0.17881 -45.187723,0.32783 -1.623579,0.14903 -3.565062,0.17515 -4.314406,0.0581 z"
       id="path1632"
       transform="matrix(0.26458333,0,0,0.26458333,209.41821,207.68914)" />
  </g>
</svg>
