<?xml version="1.0" encoding="UTF-8" standalone="no"?>
<svg
   xmlns:dc="http://purl.org/dc/elements/1.1/"
   xmlns:cc="http://creativecommons.org/ns#"
   xmlns:rdf="http://www.w3.org/1999/02/22-rdf-syntax-ns#"
   xmlns:svg="http://www.w3.org/2000/svg"
   xmlns="http://www.w3.org/2000/svg"
   xmlns:sodipodi="http://sodipodi.sourceforge.net/DTD/sodipodi-0.dtd"
   xmlns:inkscape="http://www.inkscape.org/namespaces/inkscape"
   width="36.263462mm"
   height="40.002228mm"
   viewBox="0 0 36.263462 40.002227"
   version="1.1"
   id="svg1162"
   inkscape:version="1.0.1 (3bc2e81, 2020-09-07)"
   sodipodi:docname="br.svg">
  <defs
     id="defs1156" />
  <sodipodi:namedview
     id="base"
     pagecolor="#ffffff"
     bordercolor="#666666"
     borderopacity="1.0"
     inkscape:pageopacity="0.0"
     inkscape:pageshadow="2"
     inkscape:zoom="2.2019255"
     inkscape:cx="29.732912"
     inkscape:cy="71.139334"
     inkscape:document-units="mm"
     inkscape:current-layer="layer1"
     inkscape:document-rotation="0"
     showgrid="false"
     inkscape:window-width="1338"
     inkscape:window-height="696"
     inkscape:window-x="14"
     inkscape:window-y="58"
     inkscape:window-maximized="0" />
  <metadata
     id="metadata1159">
    <rdf:RDF>
      <cc:Work
         rdf:about="">
        <dc:format>image/svg+xml</dc:format>
        <dc:type
           rdf:resource="http://purl.org/dc/dcmitype/StillImage" />
        <dc:title></dc:title>
      </cc:Work>
    </rdf:RDF>
  </metadata>
  <g
     inkscape:label="Layer 1"
     inkscape:groupmode="layer"
     id="layer1"
     transform="translate(-209.41821,-207.68914)">
    <path
       style="fill:#070707;stroke:none;stroke-width:0.264583"
       d="m 213.53539,241.80463 c -0.97311,0 -2.76103,-0.33867 -3.50777,0.42413 -0.93892,0.95938 -0.83984,4.63417 0.62614,5.04798 2.3785,0.67125 5.70206,0.0841 8.1733,0.0841 h 17.4625 c 2.04893,0 6.9125,0.90091 8.61642,-0.27199 1.03425,-0.71173 1.03425,-4.30054 0,-5.01227 -0.81756,-0.56277 -2.37755,-0.27199 -3.32476,-0.27199 0,-1.31286 0.34687,-3.20172 -0.15584,-4.42939 -0.53181,-1.29857 -1.85843,-1.99602 -2.15265,-3.50811 -0.80301,-4.12538 -0.4228,-9.83139 -0.0572,-14.02292 0.1741,-1.99839 2.23759,-2.54447 3.26443,-4.01367 0.89615,-1.28223 0.78158,-5.57231 0.33999,-7.05964 -0.33496,-1.12826 -1.91664,-0.83288 -2.82628,-0.83294 -2.336,-1.6e-4 -3.95896,-0.39819 -3.96875,2.38125 h -4.49791 c -0.002,-0.64127 0.14949,-1.65536 -0.42413,-2.10931 -0.87762,-0.69429 -6.21162,-0.69429 -7.08914,0 -0.57372,0.45395 -0.42196,1.46802 -0.42423,2.10931 h -4.49792 c -0.01,-2.77944 -1.63277,-2.38141 -3.96875,-2.38125 -0.90974,6e-5 -2.49134,-0.29532 -2.82631,0.83294 -0.44156,1.48733 -0.55607,5.77741 0.34013,7.05964 1.02687,1.4692 3.09014,2.01528 3.26443,4.01367 0.36549,4.19153 0.74578,9.89754 -0.0572,14.02292 -0.2943,1.51209 -1.62097,2.20954 -2.15281,3.50811 -0.50276,1.22767 -0.15576,3.11653 -0.15576,4.42939 m 29.10417,-26.9875 v 0.52917 l -7.14375,0.26458 h -13.49375 l -9.525,-0.26458 v -0.52917 l 9.525,-0.26458 h 13.49375 l 7.14375,0.26458 m -3.70417,3.70417 c -4.40558,1.3022 -10.4812,0.26458 -15.08125,0.26458 -2.43284,0 -5.33344,0.42693 -7.67292,-0.26458 0.89337,-1.6201 3.40897,-1.05834 5.02709,-1.05834 h 13.22916 c 1.53644,0 3.65178,-0.47622 4.49792,1.05834 m -22.09475,15.50432 c 1.15401,-0.63156 3.60151,-0.15849 4.89683,-0.15849 h 12.17084 c 0.54292,0 5.47211,-0.21246 4.54236,0.91414 -0.78475,0.95117 -3.94652,0.40878 -5.07153,0.40878 H 220.1499 c -0.363,0 -4.97083,-0.25533 -3.30933,-1.16443 m 23.15308,2.48734 v 1.05834 h -24.87083 v -1.05834 h 24.87083 m 1.32292,5.02709 c -0.57653,1.73699 -3.7764,1.05833 -5.29167,1.05833 h -16.40416 c -1.57449,0 -5.22534,0.73581 -5.82084,-1.05833 z"
       id="path92750" />
  </g>
</svg>
