<?xml version="1.0" encoding="UTF-8" standalone="no"?>
<svg
   xmlns:dc="http://purl.org/dc/elements/1.1/"
   xmlns:cc="http://creativecommons.org/ns#"
   xmlns:rdf="http://www.w3.org/1999/02/22-rdf-syntax-ns#"
   xmlns:svg="http://www.w3.org/2000/svg"
   xmlns="http://www.w3.org/2000/svg"
   xmlns:sodipodi="http://sodipodi.sourceforge.net/DTD/sodipodi-0.dtd"
   xmlns:inkscape="http://www.inkscape.org/namespaces/inkscape"
   width="42.793015mm"
   height="43.517368mm"
   viewBox="0 0 42.793015 43.517368"
   version="1.1"
   id="svg1162"
   inkscape:version="1.0.1 (3bc2e81, 2020-09-07)"
   sodipodi:docname="wb.svg">
  <defs
     id="defs1156" />
  <sodipodi:namedview
     id="base"
     pagecolor="#ffffff"
     bordercolor="#666666"
     borderopacity="1.0"
     inkscape:pageopacity="0.0"
     inkscape:pageshadow="2"
     inkscape:zoom="2.2019255"
     inkscape:cx="93.779345"
     inkscape:cy="66.075922"
     inkscape:document-units="mm"
     inkscape:current-layer="layer1"
     inkscape:document-rotation="0"
     showgrid="false"
     inkscape:window-width="1338"
     inkscape:window-height="696"
     inkscape:window-x="14"
     inkscape:window-y="58"
     inkscape:window-maximized="0"
     inkscape:pagecheckerboard="true" />
  <metadata
     id="metadata1159">
    <rdf:RDF>
      <cc:Work
         rdf:about="">
        <dc:format>image/svg+xml</dc:format>
        <dc:type
           rdf:resource="http://purl.org/dc/dcmitype/StillImage" />
        <dc:title></dc:title>
      </cc:Work>
    </rdf:RDF>
  </metadata>
  <g
     inkscape:label="Layer 1"
     inkscape:groupmode="layer"
     id="layer1"
     transform="translate(-221.95691,-193.74482)">
    <path
       style="fill:#0a0a0a;stroke:none;stroke-width:0.264583"
       d="m 240.65967,201.02489 c -5.47714,1.58089 -10.31584,8.24635 -9.08341,14.02292 0.46173,2.16429 2.41181,3.43641 2.95125,5.31548 0.30138,1.0496 -1.30776,3.30755 -1.57036,4.4741 -0.9212,4.09205 2.96,5.54143 6.37961,5.82083 v 0.26459 c -4.32054,0.0357 -9.91108,-0.37307 -14.02292,1.08585 -1.466,0.52017 -4.60431,2.56169 -2.82609,4.35954 1.7917,1.81133 7.27284,0.11086 9.70526,0.11086 3.75314,0 7.70712,-0.79851 11.37708,-0.66834 3.70655,0.13123 7.3533,0.66834 11.1125,0.66834 2.4339,0 5.95868,1.18136 8.20103,0.64214 4.1095,-0.98795 0.44317,-4.19841 -1.58645,-5.04772 -3.85577,-1.61396 -9.62977,-1.11654 -13.75833,-1.15067 v -0.26459 c 6.28306,-0.51329 8.25606,-5.61789 3.96875,-10.31875 9.3173,-4.83658 0.8427,-16.90094 -5.55625,-19.57916 0.55721,-0.55886 0.99642,-1.09162 1.25677,-1.85312 2.09788,-6.13648 -8.60856,-7.29099 -7.82053,-0.79272 0.13145,1.08382 0.75973,1.97604 1.27209,2.91042 m 2.12064,-5.44028 c 2.76251,-0.73142 3.81159,3.41336 1.05304,4.02918 -2.60228,0.58097 -3.63662,-3.34508 -1.05304,-4.02918 m 0.26061,6.34875 c 1.3634,-0.21653 2.85195,0.81148 3.96875,1.47685 3.44303,2.05113 6.33095,5.35141 6.34974,9.52093 0.0122,2.70166 -0.88556,5.70627 -3.96849,6.26295 -3.22659,0.58235 -11.46765,1.19222 -14.0123,-1.03081 -6.00036,-5.24177 1.49058,-15.24969 7.6623,-16.22992 m -0.52916,7.29361 c -3.50925,0 -3.48038,1.85172 0,1.85209 2.6e-4,3.43297 1.85182,3.43297 1.85208,0 3.43297,-3.7e-4 3.43297,-1.85172 0,-1.85209 -2.6e-4,-3.48038 -1.85208,-3.50924 -1.85208,0 m 9.26041,15.08125 h -16.66875 c 1.30453,-4.39208 6.43626,-3.175 10.05417,-3.175 1.33085,0 3.27872,-0.35216 4.49395,0.272 1.11892,0.57467 1.70471,1.78382 2.12063,2.903 m 0.26459,1.85209 c -0.31644,1.94468 -2.5617,2.26483 -4.23334,2.57677 -3.2631,0.60908 -11.84632,1.39304 -13.22916,-2.57677 h 17.4625 m 10.31875,9.26041 c -9.97956,-2.05978 -20.58379,-1.0578 -30.69167,-1.0578 -2.4847,0 -5.28725,1.19036 -7.67292,0.79322 2.21295,-2.38839 6.7663,-2.11667 9.78959,-2.11667 3.30242,0 6.39246,-1.35043 9.525,-1.44489 1.22687,-0.0373 2.50957,0.74454 3.70416,1.00357 1.92935,0.41831 3.85816,0.44132 5.82084,0.44132 2.735,0 8.05603,-0.44635 9.525,2.38125 z"
       id="path1212" />
    <path
       style="fill:#ffffff;fill-opacity:1;fill-rule:nonzero;stroke-width:0.454148"
       d="M 66.757541,97.372208 C 55.16683,95.884492 49.409609,92.58057 45.444457,85.141186 39.296383,73.606217 43.898337,57.611073 57.209422,44.249354 65.405304,36.022297 76.085176,30.50409 82.428148,31.219035 c 4.916266,0.554134 16.239619,7.436604 23.308592,14.167242 5.47987,5.21759 9.9465,12.569313 11.74248,19.327201 1.06344,4.001521 1.07075,12.789852 0.0139,16.709648 -1.70347,6.318093 -5.1867,11.051055 -9.63519,13.092196 -2.59003,1.188405 -8.087218,2.198521 -15.668102,2.87903 -6.054096,0.543456 -21.127989,0.530331 -25.432286,-0.02216 z M 82.173816,75.17213 c 1.112026,-0.595138 2.257242,-3.601345 2.591985,-6.803997 l 0.275039,-2.631426 2.875555,-0.230822 c 3.912389,-0.314049 6.272742,-1.564798 6.457694,-3.421925 0.124541,-1.250566 -0.07206,-1.520231 -1.721912,-2.361925 -1.024376,-0.522597 -3.182396,-1.073431 -4.795607,-1.224075 -2.928301,-0.273448 -2.93311,-0.276239 -2.93311,-1.702327 0,-2.248047 -1.317689,-6.756666 -2.249329,-7.696326 -2.139317,-2.157734 -4.509024,0.830114 -4.909859,6.190601 l -0.229225,3.065499 h -1.900215 c -2.55786,0 -6.272704,1.149101 -7.267117,2.247915 -2.014328,2.225807 0.787583,4.437429 6.196266,4.890873 l 3.093111,0.259316 0.01993,2.318408 c 0.02246,2.611896 0.866571,5.354166 2.050939,6.662877 0.900399,0.99493 1.277862,1.062423 2.445851,0.437334 z"
       id="path1049"
       transform="matrix(0.26458333,0,0,0.26458333,221.95691,193.74482)" />
    <path
       style="fill:#ffffff;fill-opacity:1;fill-rule:nonzero;stroke-width:0.454148"
       d="m 51.272949,112.48531 c 1.466677,-2.90547 3.984778,-5.43384 6.885714,-6.91379 3.957755,-2.01909 6.768952,-2.24611 25.936287,-2.09449 17.46957,0.13819 17.99591,0.16847 20.02839,1.15238 2.60504,1.26108 4.89044,3.75739 6.67323,7.28907 0.75667,1.49896 1.37577,2.83338 1.37577,2.9654 0,0.13201 -14.002056,0.24002 -31.115675,0.24002 H 49.940991 Z"
       id="path1051"
       transform="matrix(0.26458333,0,0,0.26458333,221.95691,193.74482)" />
    <path
       style="fill:#ffffff;fill-opacity:1;fill-rule:nonzero;stroke-width:0.454148"
       d="m 65.395097,133.07218 c -8.380025,-1.38949 -14.338398,-4.60709 -16.627116,-8.97885 l -0.653832,-1.24891 h 32.483243 c 25.684738,0 32.482888,0.11881 32.481548,0.56768 -0.003,1.0204 -1.70427,3.38904 -3.31826,4.6201 -2.29519,1.75062 -5.90694,2.87976 -13.423333,4.19653 -8.328883,1.45911 -24.560761,1.90157 -30.94225,0.84345 z"
       id="path1053"
       transform="matrix(0.26458333,0,0,0.26458333,221.95691,193.74482)" />
    <path
       style="fill:#ffffff;fill-opacity:1;fill-rule:nonzero;stroke-width:0.454148"
       d="m 143.73562,155.76094 c -17.6927,-3.04677 -35.43209,-3.73293 -77.432227,-2.9951 -32.749607,0.57533 -33.362145,0.61236 -45.713512,2.76358 -3.38052,0.58879 -6.902385,0.90994 -9.08296,0.82827 l -3.5615423,-0.1334 2.8449913,-1.89995 c 6.324577,-4.22371 10.940342,-5.14264 28.037071,-5.58178 l 13.170291,-0.33829 11.580773,-2.40408 c 15.254317,-3.16669 18.50618,-3.26548 25.432287,-0.77267 7.772992,2.79762 10.402472,3.10307 30.200838,3.50817 18.84974,0.38569 21.14643,0.64294 26.39737,2.95671 2.27352,1.00181 6.07421,4.0126 6.07421,4.81181 0,0.54228 -1.0556,0.44356 -7.94759,-0.74327 z"
       id="path1055"
       transform="matrix(0.26458333,0,0,0.26458333,221.95691,193.74482)" />
    <path
       style="fill:#ffffff;fill-opacity:1;fill-rule:nonzero;stroke-width:0.454148"
       d="m 77.244702,21.041928 c -4.07981,-2.799439 -5.10962,-7.848312 -2.323309,-11.3905329 2.111143,-2.6838844 7.192025,-3.4874507 10.048443,-1.5892109 2.245617,1.4923299 3.69479,4.5547208 3.452838,7.2965328 -0.340173,3.854852 -2.927875,6.276257 -7.012758,6.562086 -2.185023,0.152892 -2.873159,0.0077 -4.165214,-0.878875 z"
       id="path1057"
       transform="matrix(0.26458333,0,0,0.26458333,221.95691,193.74482)" />
  </g>
</svg>
