<?xml version="1.0" encoding="UTF-8" standalone="no"?>
<svg
   xmlns:dc="http://purl.org/dc/elements/1.1/"
   xmlns:cc="http://creativecommons.org/ns#"
   xmlns:rdf="http://www.w3.org/1999/02/22-rdf-syntax-ns#"
   xmlns:svg="http://www.w3.org/2000/svg"
   xmlns="http://www.w3.org/2000/svg"
   xmlns:sodipodi="http://sodipodi.sourceforge.net/DTD/sodipodi-0.dtd"
   xmlns:inkscape="http://www.inkscape.org/namespaces/inkscape"
   width="42.793015mm"
   height="43.517368mm"
   viewBox="0 0 42.793015 43.517368"
   version="1.1"
   id="svg1162"
   inkscape:version="1.0.1 (3bc2e81, 2020-09-07)"
   sodipodi:docname="wb.svg">
  <defs
     id="defs1156" />
  <sodipodi:namedview
     id="base"
     pagecolor="#ffffff"
     bordercolor="#666666"
     borderopacity="1.0"
     inkscape:pageopacity="0.0"
     inkscape:pageshadow="2"
     inkscape:zoom="2.2019255"
     inkscape:cx="181.20283"
     inkscape:cy="66.53007"
     inkscape:document-units="mm"
     inkscape:current-layer="layer1"
     inkscape:document-rotation="0"
     showgrid="false"
     inkscape:window-width="1338"
     inkscape:window-height="696"
     inkscape:window-x="14"
     inkscape:window-y="58"
     inkscape:window-maximized="0" />
  <metadata
     id="metadata1159">
    <rdf:RDF>
      <cc:Work
         rdf:about="">
        <dc:format>image/svg+xml</dc:format>
        <dc:type
           rdf:resource="http://purl.org/dc/dcmitype/StillImage" />
        <dc:title></dc:title>
      </cc:Work>
    </rdf:RDF>
  </metadata>
  <g
     inkscape:label="Layer 1"
     inkscape:groupmode="layer"
     id="layer1"
     transform="translate(-221.95691,-193.74482)">
    <path
       style="fill:#0a0a0a;stroke:none;stroke-width:0.264583"
       d="m 240.65967,201.02489 c -5.47714,1.58089 -10.31584,8.24635 -9.08341,14.02292 0.46173,2.16429 2.41181,3.43641 2.95125,5.31548 0.30138,1.0496 -1.30776,3.30755 -1.57036,4.4741 -0.9212,4.09205 2.96,5.54143 6.37961,5.82083 v 0.26459 c -4.32054,0.0357 -9.91108,-0.37307 -14.02292,1.08585 -1.466,0.52017 -4.60431,2.56169 -2.82609,4.35954 1.7917,1.81133 7.27284,0.11086 9.70526,0.11086 3.75314,0 7.70712,-0.79851 11.37708,-0.66834 3.70655,0.13123 7.3533,0.66834 11.1125,0.66834 2.4339,0 5.95868,1.18136 8.20103,0.64214 4.1095,-0.98795 0.44317,-4.19841 -1.58645,-5.04772 -3.85577,-1.61396 -9.62977,-1.11654 -13.75833,-1.15067 v -0.26459 c 6.28306,-0.51329 8.25606,-5.61789 3.96875,-10.31875 9.3173,-4.83658 0.8427,-16.90094 -5.55625,-19.57916 0.55721,-0.55886 0.99642,-1.09162 1.25677,-1.85312 2.09788,-6.13648 -8.60856,-7.29099 -7.82053,-0.79272 0.13145,1.08382 0.75973,1.97604 1.27209,2.91042 m 2.12064,-5.44028 c 2.76251,-0.73142 3.81159,3.41336 1.05304,4.02918 -2.60228,0.58097 -3.63662,-3.34508 -1.05304,-4.02918 m 0.26061,6.34875 c 1.3634,-0.21653 2.85195,0.81148 3.96875,1.47685 3.44303,2.05113 6.33095,5.35141 6.34974,9.52093 0.0122,2.70166 -0.88556,5.70627 -3.96849,6.26295 -3.22659,0.58235 -11.46765,1.19222 -14.0123,-1.03081 -6.00036,-5.24177 1.49058,-15.24969 7.6623,-16.22992 m -0.52916,7.29361 c -3.50925,0 -3.48038,1.85172 0,1.85209 2.6e-4,3.43297 1.85182,3.43297 1.85208,0 3.43297,-3.7e-4 3.43297,-1.85172 0,-1.85209 -2.6e-4,-3.48038 -1.85208,-3.50924 -1.85208,0 m 9.26041,15.08125 h -16.66875 c 1.30453,-4.39208 6.43626,-3.175 10.05417,-3.175 1.33085,0 3.27872,-0.35216 4.49395,0.272 1.11892,0.57467 1.70471,1.78382 2.12063,2.903 m 0.26459,1.85209 c -0.31644,1.94468 -2.5617,2.26483 -4.23334,2.57677 -3.2631,0.60908 -11.84632,1.39304 -13.22916,-2.57677 h 17.4625 m 10.31875,9.26041 c -9.97956,-2.05978 -20.58379,-1.0578 -30.69167,-1.0578 -2.4847,0 -5.28725,1.19036 -7.67292,0.79322 2.21295,-2.38839 6.7663,-2.11667 9.78959,-2.11667 3.30242,0 6.39246,-1.35043 9.525,-1.44489 1.22687,-0.0373 2.50957,0.74454 3.70416,1.00357 1.92935,0.41831 3.85816,0.44132 5.82084,0.44132 2.735,0 8.05603,-0.44635 9.525,2.38125 z"
       id="path1212" />
  </g>
</svg>
