<?xml version="1.0" encoding="UTF-8" standalone="no"?>
<svg
   xmlns:dc="http://purl.org/dc/elements/1.1/"
   xmlns:cc="http://creativecommons.org/ns#"
   xmlns:rdf="http://www.w3.org/1999/02/22-rdf-syntax-ns#"
   xmlns:svg="http://www.w3.org/2000/svg"
   xmlns="http://www.w3.org/2000/svg"
   xmlns:sodipodi="http://sodipodi.sourceforge.net/DTD/sodipodi-0.dtd"
   xmlns:inkscape="http://www.inkscape.org/namespaces/inkscape"
   version="1.1"
   id="svg697"
   width="165.09203"
   height="165.46495"
   viewBox="0 0 165.09203 165.46495"
   sodipodi:docname="wk.svg"
   inkscape:version="1.0.1 (3bc2e81, 2020-09-07)">
  <metadata
     id="metadata703">
    <rdf:RDF>
      <cc:Work
         rdf:about="">
        <dc:format>image/svg+xml</dc:format>
        <dc:type
           rdf:resource="http://purl.org/dc/dcmitype/StillImage" />
        <dc:title></dc:title>
      </cc:Work>
    </rdf:RDF>
  </metadata>
  <defs
     id="defs701" />
  <sodipodi:namedview
     pagecolor="#ffffff"
     bordercolor="#666666"
     borderopacity="1"
     objecttolerance="10"
     gridtolerance="10"
     guidetolerance="10"
     inkscape:pageopacity="0"
     inkscape:pageshadow="2"
     inkscape:window-width="1338"
     inkscape:window-height="696"
     id="namedview699"
     showgrid="false"
     fit-margin-top="0"
     fit-margin-left="0"
     fit-margin-right="0"
     fit-margin-bottom="0"
     inkscape:zoom="1.1045058"
     inkscape:cx="54.930896"
     inkscape:cy="144.64267"
     inkscape:window-x="14"
     inkscape:window-y="58"
     inkscape:window-maximized="0"
     inkscape:current-layer="g705"
     inkscape:document-rotation="0"
     inkscape:pagecheckerboard="true" />
  <g
     inkscape:groupmode="layer"
     inkscape:label="Image"
     id="g705"
     transform="translate(-203.14075,-32.023491)">
    <path
       style="fill:#0a0a0a;stroke:none"
       d="m 282.22287,39.528268 c -13.1372,0.009 -13.1318,7.9638 0,8 0,12.2251 -6.5671,12.2897 -12.1196,22 -3.6468,6.3776 -3.1765,11.9963 -2.8804,19 -23.3157,-16.9387 -67.854,-13.0544 -63.8264,25.000002 1.0952,10.347 7.2634,19.043 14.8272,25.826 3.4672,3.11 9.596,5.779 11.3958,10.267 3.5811,8.932 -4.7823,28.232 2.9213,34.941 18.6847,16.271 56.4601,14.414 78.6821,9.315 7.31,-1.678 19.599,-4.413 24.397,-10.678 6.437,-8.405 -2.498,-23.473 2.631,-32.487 2.381,-4.184 8.326,-6.658 11.972,-9.649 9.055,-7.425 17.078,-17.417 17.909,-29.535 2.446,-35.686702 -40.173,-37.912602 -62.909,-26.000002 -0.048,-17.3534 -16,-22.2884 -16,-38 13.368,-0.009 13.368,-7.9912 0,-8 -0.036,-10.099998 -6.883,-9.9123 -7,0 m 3,69.000002 c -5.733,-7.9755 -22.4278,-40.742102 0,-41.847202 6.987,-0.3443 11.709,6.5812 12.657,12.8472 1.646,10.8891 -6.118,21.190402 -12.657,29.000002 m -3,25 c -9.9938,0.028 -20.3298,1.345 -30,3.884 -4.8616,1.277 -10.9778,4.651 -16,4.394 -4.7531,-0.244 -9.5756,-4.634 -12.9992,-7.578 -19.7041,-16.947 -13.6552,-53.354802 16.9992,-49.410602 6.3255,0.8138 12.5172,2.9135 18,6.1643 7.0655,4.1893 13.1528,10.011202 18.1003,16.546302 6.3557,8.395 5.8997,15.94 5.8997,26 m 7,0 c 0,-9.71 -0.174,-17.352 4.877,-26 3.812,-6.5287 9.7,-12.414602 16.123,-16.380402 17.369,-10.7239 48.679,-8.0591 50.812,17.380402 1.023,12.203 -15.477,35.149 -28.812,34.397 -4.897,-0.277 -10.247,-3.628 -15,-4.969 -9.044,-2.551 -18.659,-3.691 -28,-4.428 m 41,25 c -11.838,-2.739 -22.758,-6.664 -35,-7.83 -20.3685,-1.94 -38.6319,2.545 -58,7.83 0.009,-11.55 8.8315,-12.92 19,-14.996 17.6932,-3.613 36.321,-4.188 54,-0.117 9.791,2.255 19.959,3.51 20,15.113 m 0,16 c -10.097,-1.006 -19.789,-5.456 -30,-6.714 -21.3504,-2.63 -42.8971,-0.041 -63,7.714 0.009,-11.617 7.8456,-12.706 18,-15.116 17.5423,-4.163 36.342,-3.919 54,-0.623 9.4,1.754 20.867,3.476 21,14.739 m -6,8 c -26.327,7.186 -56.3675,12.507 -82,-1 16.4379,-10.344 43.677,-8.539 62,-6 6.142,0.851 16.264,1.542 20,7 z"
       id="path1034" />
    <path
       style="fill:#ffffff;stroke-width:0.905382"
       d="M 28.034408,107.48017 C 22.584635,104.6022 14.824006,96.369741 12.239967,90.725458 5.6759729,76.387805 10.468601,60.396592 22.937213,55.03274 c 3.973147,-1.709202 5.873788,-1.974009 11.583011,-1.613804 12.326195,0.777682 22.914711,6.037089 32.847464,16.315618 7.144012,7.392708 10.453882,14.468772 11.21695,23.980359 l 0.599233,7.469407 -4.430738,0.005 c -7.415789,0.009 -21.305105,2.4677 -30.403696,5.38224 -10.012415,3.20726 -11.77574,3.30543 -16.315029,0.90828 z"
       id="path1061"
       transform="translate(203.14075,32.023491)" />
    <path
       style="fill:#ffffff;stroke-width:0.905382"
       d="m 117.82397,107.01121 c -5.5727,-1.97982 -12.71249,-3.62339 -20.144761,-4.63731 -13.207217,-1.80173 -12.184216,-0.5666 -10.596506,-12.793785 2.568002,-19.776562 20.635347,-35.385562 41.236257,-35.625424 15.35249,-0.178753 25.70694,6.926568 28.53958,19.584136 0.87024,3.888676 0.80335,5.555765 -0.38728,9.651385 -2.75725,9.484603 -13.43328,22.602778 -20.95142,25.744058 -4.53426,1.89454 -8.01506,1.51627 -17.69587,-1.92306 z"
       id="path1063"
       transform="translate(203.14075,32.023491)" />
    <path
       style="fill:#ffffff;stroke-width:0.905382"
       d="M 77.689564,67.529623 C 68.371557,48.754189 69.593133,36.54109 80.904263,35.389619 c 9.768951,-0.994477 16.229376,11.045414 12.114626,22.577273 -1.348546,3.779391 -5.866879,11.491089 -9.05781,15.459482 l -2.068402,2.572365 z"
       id="path1065"
       transform="translate(203.14075,32.023491)" />
    <path
       style="fill:#ffffff;stroke-width:0.905382"
       d="m 34.912176,139.93827 c 1.191686,-5.95843 5.701089,-8.53433 20.471411,-11.69385 7.65411,-1.63729 12.417434,-2.03574 24.445322,-2.0448 21.731551,-0.0164 38.017381,3.18216 43.348991,8.51377 2.7043,2.7043 4.25059,7.21324 2.47361,7.21299 -0.5534,-8e-5 -6.71009,-1.52013 -13.68153,-3.37788 -12.609841,-3.36028 -12.768938,-3.37783 -30.782997,-3.39504 -19.045676,-0.0182 -28.363123,1.29715 -41.705571,5.88763 l -5.143742,1.76971 z"
       id="path1067"
       transform="translate(203.14075,32.023491)" />
    <path
       style="fill:#ffffff;stroke-width:0.905382"
       d="m 34.559794,124.69518 c 0,-3.11191 2.903806,-7.27292 6.276109,-8.99334 7.749911,-3.95371 19.884437,-5.77352 38.993006,-5.84778 15.380181,-0.0598 18.876899,0.20487 27.138691,2.05395 9.56161,2.13999 15.05629,4.31808 17.0973,6.77734 1.19257,1.43696 3.00231,6.94429 2.28194,6.94429 -0.23955,0 -6.06878,-1.41862 -12.95383,-3.15248 -25.196564,-6.34525 -41.761805,-6.14029 -69.305938,0.85755 -10.52988,2.67521 -9.527278,2.53204 -9.527278,1.36047 z"
       id="path1069"
       transform="translate(203.14075,32.023491)" />
    <path
       style="fill:#ffffff;stroke-width:0.905382"
       d="m 60.219753,155.97854 c -7.003855,-1.27092 -13.905531,-3.40814 -17.511518,-5.42273 l -2.263456,-1.26455 4.173615,-1.85781 c 9.306697,-4.14273 14.899289,-5.01989 31.588986,-4.95452 9.823343,0.0385 19.568186,0.62857 25.64409,1.55288 10.0645,1.53107 18.81116,4.54687 17.29606,5.96358 -0.46193,0.43194 -4.58359,1.65132 -9.15924,2.70973 -19.739645,4.56606 -36.551341,5.67181 -49.768537,3.27342 z"
       id="path1071"
       transform="translate(203.14075,32.023491)" />
  </g>
</svg>
