<?xml version="1.0" encoding="UTF-8" standalone="no"?>
<svg
   xmlns:dc="http://purl.org/dc/elements/1.1/"
   xmlns:cc="http://creativecommons.org/ns#"
   xmlns:rdf="http://www.w3.org/1999/02/22-rdf-syntax-ns#"
   xmlns:svg="http://www.w3.org/2000/svg"
   xmlns="http://www.w3.org/2000/svg"
   xmlns:sodipodi="http://sodipodi.sourceforge.net/DTD/sodipodi-0.dtd"
   xmlns:inkscape="http://www.inkscape.org/namespaces/inkscape"
   width="42.236347mm"
   height="42.164181mm"
   viewBox="0 0 42.236348 42.16418"
   version="1.1"
   id="svg1162"
   inkscape:version="1.0.1 (3bc2e81, 2020-09-07)"
   sodipodi:docname="wb.svg">
  <defs
     id="defs1156" />
  <sodipodi:namedview
     id="base"
     pagecolor="#ffffff"
     bordercolor="#666666"
     borderopacity="1.0"
     inkscape:pageopacity="0.0"
     inkscape:pageshadow="2"
     inkscape:zoom="1.2063441"
     inkscape:cx="66.860721"
     inkscape:cy="110.95074"
     inkscape:document-units="mm"
     inkscape:current-layer="layer1"
     inkscape:document-rotation="0"
     showgrid="false"
     inkscape:window-width="1338"
     inkscape:window-height="696"
     inkscape:window-x="14"
     inkscape:window-y="58"
     inkscape:window-maximized="0" />
  <metadata
     id="metadata1159">
    <rdf:RDF>
      <cc:Work
         rdf:about="">
        <dc:format>image/svg+xml</dc:format>
        <dc:type
           rdf:resource="http://purl.org/dc/dcmitype/StillImage" />
        <dc:title></dc:title>
      </cc:Work>
    </rdf:RDF>
  </metadata>
  <g
     inkscape:label="Layer 1"
     inkscape:groupmode="layer"
     id="layer1"
     transform="translate(-221.95691,-193.74482)">
    <path
       style="fill:#0d0d0d;stroke:none;stroke-width:0.264583"
       d="m 243.36705,214.28958 c -0.0495,5.96583 -4.45948,8.68442 -7.75743,12.96458 -1.37104,1.77933 -3.15042,5.31284 -2.13709,7.63376 0.69231,1.58565 5.26706,0.83291 6.71952,0.83291 h 17.19791 c 1.4658,0 5.04481,0.64797 6.15368,-0.4609 1.10437,-1.10464 0.46779,-4.69265 0.46064,-6.15368 -0.0304,-6.33519 -0.81994,-13.47206 -3.4028,-19.31459 -1.9775,-4.47344 -4.98131,-8.43412 -9.56152,-10.46718 -2.01639,-0.895 -4.36721,-1.00147 -6.32116,-1.89616 -1.59596,-0.7307 -0.85328,-3.57008 -2.94322,-3.68049 -2.28672,-0.12081 -2.6969,3.44019 -4.51109,3.44019 -1.90291,0 -2.75376,-4.37007 -5.2141,-2.95534 -1.99932,1.14964 0.13111,4.75364 -1.05568,6.56418 -3.40014,5.18713 -10.74471,14.00178 -8.67693,20.63647 0.85225,2.73473 2.64451,2.40665 4.886,2.99429 1.10739,0.29025 1.6541,1.36869 2.9341,1.12951 1.98258,-0.37042 2.97156,-2.51725 4.27845,-3.81318 2.74499,-2.7223 6.18278,-4.68656 8.95072,-7.45437 m -1.5875,-18.52083 c 0.36062,4.56898 4.3389,3.63722 7.9375,5.04505 2.54979,0.9975 4.7961,2.87173 6.47753,5.00911 5.87084,7.46284 5.95788,18.7587 5.95788,27.78125 h -26.9875 c 0.21188,-4.63682 4.07239,-7.04453 6.75614,-10.31875 2.13201,-2.60085 3.00461,-5.45809 3.45017,-8.73125 0.23786,-1.7481 0.67071,-3.56576 0.8456,-5.29145 0.0532,-0.52549 -0.0169,-1.533 -0.75697,-1.533 -0.86386,0 -2.44104,4.17285 -3.17579,4.97237 -2.61014,2.83951 -5.84012,4.71038 -8.70276,7.22313 -1.32135,1.15993 -2.09312,2.85564 -3.70805,3.62479 0.24833,-0.91229 0.80015,-4.93686 -1.50339,-3.23162 -0.69035,0.51117 -0.43757,1.63195 -1.22656,2.01348 -2.53899,1.22793 -3.51816,-2.30373 -3.30626,-4.07353 0.54187,-4.52596 4.42799,-9.99461 6.85364,-13.75833 1.00134,-1.55372 2.7228,-3.11129 2.9837,-5.02709 0.14349,-1.05346 -0.47077,-2.13767 -0.62613,-3.175 1.14839,0.58677 1.47973,1.7381 2.4674,2.48619 2.96526,2.24597 4.28111,-2.04634 6.26385,-3.01535 m -8.1982,7.15621 c -1.88275,0.8926 -2.87895,5.90709 -0.0151,4.43688 1.6566,-0.85048 2.67779,-5.69929 0.0151,-4.43688 m -7.63762,13.49372 c -1.56141,0.84667 -0.37756,3.42503 1.25474,2.61435 1.72537,-0.85672 0.36837,-3.49435 -1.25474,-2.61435 z"
       id="path1298" />
  </g>
</svg>
