<?xml version="1.0" encoding="UTF-8" standalone="no"?>
<svg
   xmlns:dc="http://purl.org/dc/elements/1.1/"
   xmlns:cc="http://creativecommons.org/ns#"
   xmlns:rdf="http://www.w3.org/1999/02/22-rdf-syntax-ns#"
   xmlns:svg="http://www.w3.org/2000/svg"
   xmlns="http://www.w3.org/2000/svg"
   xmlns:sodipodi="http://sodipodi.sourceforge.net/DTD/sodipodi-0.dtd"
   xmlns:inkscape="http://www.inkscape.org/namespaces/inkscape"
   width="42.236347mm"
   height="42.164181mm"
   viewBox="0 0 42.236348 42.16418"
   version="1.1"
   id="svg1162"
   inkscape:version="1.0.1 (3bc2e81, 2020-09-07)"
   sodipodi:docname="wn.svg">
  <defs
     id="defs1156" />
  <sodipodi:namedview
     id="base"
     pagecolor="#ffffff"
     bordercolor="#666666"
     borderopacity="1.0"
     inkscape:pageopacity="0.0"
     inkscape:pageshadow="2"
     inkscape:zoom="1.2063441"
     inkscape:cx="66.860721"
     inkscape:cy="110.12179"
     inkscape:document-units="mm"
     inkscape:current-layer="layer1"
     inkscape:document-rotation="0"
     showgrid="false"
     inkscape:window-width="1338"
     inkscape:window-height="696"
     inkscape:window-x="14"
     inkscape:window-y="58"
     inkscape:window-maximized="0"
     inkscape:pagecheckerboard="true" />
  <metadata
     id="metadata1159">
    <rdf:RDF>
      <cc:Work
         rdf:about="">
        <dc:format>image/svg+xml</dc:format>
        <dc:type
           rdf:resource="http://purl.org/dc/dcmitype/StillImage" />
        <dc:title></dc:title>
      </cc:Work>
    </rdf:RDF>
  </metadata>
  <g
     inkscape:label="Layer 1"
     inkscape:groupmode="layer"
     id="layer1"
     transform="translate(-221.95691,-193.74482)">
    <path
       style="fill:#0d0d0d;stroke:none;stroke-width:0.264583"
       d="m 243.36705,214.28958 c -0.0495,5.96583 -4.45948,8.68442 -7.75743,12.96458 -1.37104,1.77933 -3.15042,5.31284 -2.13709,7.63376 0.69231,1.58565 5.26706,0.83291 6.71952,0.83291 h 17.19791 c 1.4658,0 5.04481,0.64797 6.15368,-0.4609 1.10437,-1.10464 0.46779,-4.69265 0.46064,-6.15368 -0.0304,-6.33519 -0.81994,-13.47206 -3.4028,-19.31459 -1.9775,-4.47344 -4.98131,-8.43412 -9.56152,-10.46718 -2.01639,-0.895 -4.36721,-1.00147 -6.32116,-1.89616 -1.59596,-0.7307 -0.85328,-3.57008 -2.94322,-3.68049 -2.28672,-0.12081 -2.6969,3.44019 -4.51109,3.44019 -1.90291,0 -2.75376,-4.37007 -5.2141,-2.95534 -1.99932,1.14964 0.13111,4.75364 -1.05568,6.56418 -3.40014,5.18713 -10.74471,14.00178 -8.67693,20.63647 0.85225,2.73473 2.64451,2.40665 4.886,2.99429 1.10739,0.29025 1.6541,1.36869 2.9341,1.12951 1.98258,-0.37042 2.97156,-2.51725 4.27845,-3.81318 2.74499,-2.7223 6.18278,-4.68656 8.95072,-7.45437 m -1.5875,-18.52083 c 0.36062,4.56898 4.3389,3.63722 7.9375,5.04505 2.54979,0.9975 4.7961,2.87173 6.47753,5.00911 5.87084,7.46284 5.95788,18.7587 5.95788,27.78125 h -26.9875 c 0.21188,-4.63682 4.07239,-7.04453 6.75614,-10.31875 2.13201,-2.60085 3.00461,-5.45809 3.45017,-8.73125 0.23786,-1.7481 0.67071,-3.56576 0.8456,-5.29145 0.0532,-0.52549 -0.0169,-1.533 -0.75697,-1.533 -0.86386,0 -2.44104,4.17285 -3.17579,4.97237 -2.61014,2.83951 -5.84012,4.71038 -8.70276,7.22313 -1.32135,1.15993 -2.09312,2.85564 -3.70805,3.62479 0.24833,-0.91229 0.80015,-4.93686 -1.50339,-3.23162 -0.69035,0.51117 -0.43757,1.63195 -1.22656,2.01348 -2.53899,1.22793 -3.51816,-2.30373 -3.30626,-4.07353 0.54187,-4.52596 4.42799,-9.99461 6.85364,-13.75833 1.00134,-1.55372 2.7228,-3.11129 2.9837,-5.02709 0.14349,-1.05346 -0.47077,-2.13767 -0.62613,-3.175 1.14839,0.58677 1.47973,1.7381 2.4674,2.48619 2.96526,2.24597 4.28111,-2.04634 6.26385,-3.01535 m -8.1982,7.15621 c -1.88275,0.8926 -2.87895,5.90709 -0.0151,4.43688 1.6566,-0.85048 2.67779,-5.69929 0.0151,-4.43688 m -7.63762,13.49372 c -1.56141,0.84667 -0.37756,3.42503 1.25474,2.61435 1.72537,-0.85672 0.36837,-3.49435 -1.25474,-2.61435 z"
       id="path1298" />
    <path
       style="fill:#ffffff;stroke-width:0.828951"
       d="m 50.696179,147.84795 c 0,-3.02424 2.672632,-9.55173 5.730834,-13.99667 1.469896,-2.13642 6.398581,-7.84713 10.952632,-12.69047 9.378466,-9.9742 12.236732,-13.8443 15.665143,-21.210613 3.12539,-6.71524 4.319004,-11.505142 7.093744,-28.466739 2.325879,-14.21773 2.290308,-17.954394 -0.179915,-18.902307 -2.11238,-0.810597 -4.055391,1.51196 -9.041629,10.807813 -5.125904,9.556234 -8.117046,12.552751 -26.565453,26.613185 -5.487739,4.182471 -12.688737,10.606921 -16.00222,14.276551 -3.313481,3.66962 -6.347831,6.67204 -6.742998,6.67204 -0.395166,0 -0.707543,-2.28771 -0.69417,-5.08378 0.02959,-6.188311 -1.32521,-8.107904 -4.864228,-6.892015 -1.509915,0.518757 -2.881978,2.014735 -4.018826,4.381795 -1.960973,4.08298 -3.172218,5.07639 -6.211591,5.09446 -4.058019,0.0241 -8.2267687,-6.79859 -8.2267687,-13.464214 0,-11.303831 11.0658067,-33.503365 29.1237957,-58.426351 2.72202,-3.756834 5.716241,-8.564794 6.653824,-10.684354 1.673903,-3.784139 1.688847,-4.583009 0.22283,-11.912794 l -0.580289,-2.901328 5.005336,5.180943 c 4.877413,5.048532 5.115432,5.180943 9.313161,5.180943 4.292583,0 4.329384,-0.02263 10.400997,-6.396911 3.351245,-3.518302 6.232231,-6.2227539 6.402192,-6.0098942 0.169961,0.2128598 0.968049,2.1653182 1.77353,4.3387962 2.146161,5.791112 5.213894,7.713062 16.880754,10.575872 11.978026,2.939164 16.329996,4.73249 22.926696,9.447447 17.57613,12.562439 28.60887,34.273211 33.16442,65.262542 1.13242,7.703303 2.87905,35.899873 2.93198,47.332013 l 0.0182,3.93752 H 101.26218 50.696179 Z M 21.890136,94.244537 c 0.797865,-0.942907 1.450664,-2.622586 1.450664,-3.732608 0,-2.47395 -3.444511,-6.087617 -5.802656,-6.087617 -2.41023,0 -5.802656,3.634742 -5.802656,6.217132 0,1.196955 0.93589,3.08363 2.114092,4.261827 2.452948,2.452948 5.627627,2.192857 8.040556,-0.658734 z M 44.097605,51.66367 c 4.302811,-2.22507 7.909646,-12.148791 5.82874,-16.036998 -1.309282,-2.446416 -5.101882,-2.300736 -8.21098,0.315398 -4.21699,3.548363 -6.508066,12.980119 -3.808714,15.679471 1.632462,1.632462 3.096326,1.642424 6.190954,0.04213 z"
       id="path1073"
       transform="matrix(0.26458333,0,0,0.26458333,221.95691,193.74482)" />
  </g>
</svg>
