<?xml version="1.0" encoding="UTF-8" standalone="no"?>
<svg
   xmlns:dc="http://purl.org/dc/elements/1.1/"
   xmlns:cc="http://creativecommons.org/ns#"
   xmlns:rdf="http://www.w3.org/1999/02/22-rdf-syntax-ns#"
   xmlns:svg="http://www.w3.org/2000/svg"
   xmlns="http://www.w3.org/2000/svg"
   xmlns:sodipodi="http://sodipodi.sourceforge.net/DTD/sodipodi-0.dtd"
   xmlns:inkscape="http://www.inkscape.org/namespaces/inkscape"
   width="30.69166mm"
   height="40.19585mm"
   viewBox="0 0 30.69166 40.19585"
   version="1.1"
   id="svg1162"
   inkscape:version="1.0.1 (3bc2e81, 2020-09-07)"
   sodipodi:docname="wr.svg">
  <defs
     id="defs1156" />
  <sodipodi:namedview
     id="base"
     pagecolor="#ffffff"
     bordercolor="#666666"
     borderopacity="1.0"
     inkscape:pageopacity="0.0"
     inkscape:pageshadow="2"
     inkscape:zoom="2.2019255"
     inkscape:cx="11.133937"
     inkscape:cy="108.98097"
     inkscape:document-units="mm"
     inkscape:current-layer="layer1"
     inkscape:document-rotation="0"
     showgrid="false"
     inkscape:window-width="1338"
     inkscape:window-height="696"
     inkscape:window-x="14"
     inkscape:window-y="58"
     inkscape:window-maximized="0" />
  <metadata
     id="metadata1159">
    <rdf:RDF>
      <cc:Work
         rdf:about="">
        <dc:format>image/svg+xml</dc:format>
        <dc:type
           rdf:resource="http://purl.org/dc/dcmitype/StillImage" />
        <dc:title></dc:title>
      </cc:Work>
    </rdf:RDF>
  </metadata>
  <g
     inkscape:label="Layer 1"
     inkscape:groupmode="layer"
     id="layer1"
     transform="translate(-266.9543,-182.51301)">
    <path
       style="fill:#080808;stroke:none;stroke-width:0.264583"
       d="m 275.42096,204.71719 c -6.59561,3.13849 -8.46666,11.3919 -8.46666,17.99167 h 30.69166 c 0,-6.56379 -1.92537,-14.87911 -8.46666,-17.99167 1.93807,-3.21945 3.039,-6.7214 1.22317,-10.31875 -0.60034,-1.18912 -1.98226,-2.10431 -2.40269,-3.32729 -0.36406,-1.05918 0.21881,-2.65621 0.0722,-3.81646 -0.35084,-2.77379 -3.06758,-4.74168 -5.77189,-4.74168 -3.04186,0 -5.56347,2.26322 -5.89883,5.27085 -0.11626,1.04291 0.53252,2.35651 0.19926,3.32729 -0.41283,1.20256 -1.80899,2.11124 -2.40269,3.28729 -1.81602,3.59738 -0.71498,7.0993 1.22309,10.31875 m 9.525,-13.22917 v 0.26459 c 6.21533,3.32573 5.08371,9.20326 0.79375,13.49375 6.68444,2.17858 9.76816,8.95032 10.05417,15.61041 h -26.9875 c 0.13721,-6.64739 3.45943,-13.46094 10.05417,-15.61041 -4.33197,-4.27805 -5.43129,-10.16275 0.79375,-13.49375 -0.59831,-0.73065 -1.1158,-1.42166 -1.26638,-2.38125 -0.10464,-0.66691 -0.11009,-1.45937 0.0543,-2.11646 1.58583,-6.33841 11.6713,-0.55909 6.50372,4.23312 z"
       id="path1366" />
  </g>
</svg>
