<?xml version="1.0" encoding="UTF-8" standalone="no"?>
<svg
   xmlns:dc="http://purl.org/dc/elements/1.1/"
   xmlns:cc="http://creativecommons.org/ns#"
   xmlns:rdf="http://www.w3.org/1999/02/22-rdf-syntax-ns#"
   xmlns:svg="http://www.w3.org/2000/svg"
   xmlns="http://www.w3.org/2000/svg"
   xmlns:sodipodi="http://sodipodi.sourceforge.net/DTD/sodipodi-0.dtd"
   xmlns:inkscape="http://www.inkscape.org/namespaces/inkscape"
   width="48.128944mm"
   height="44.265839mm"
   viewBox="0 0 48.128944 44.265839"
   version="1.1"
   id="svg1106"
   inkscape:version="1.0.1 (3bc2e81, 2020-09-07)"
   sodipodi:docname="bq.svg">
  <defs
     id="defs1100" />
  <sodipodi:namedview
     id="base"
     pagecolor="#ffffff"
     bordercolor="#666666"
     borderopacity="1.0"
     inkscape:pageopacity="0.0"
     inkscape:pageshadow="2"
     inkscape:zoom="0.35"
     inkscape:cx="400"
     inkscape:cy="560"
     inkscape:document-units="mm"
     inkscape:current-layer="layer1"
     inkscape:document-rotation="0"
     showgrid="false"
     inkscape:window-width="1338"
     inkscape:window-height="696"
     inkscape:window-x="14"
     inkscape:window-y="58"
     inkscape:window-maximized="0" />
  <metadata
     id="metadata1103">
    <rdf:RDF>
      <cc:Work
         rdf:about="">
        <dc:format>image/svg+xml</dc:format>
        <dc:type
           rdf:resource="http://purl.org/dc/dcmitype/StillImage" />
        <dc:title></dc:title>
      </cc:Work>
    </rdf:RDF>
  </metadata>
  <g
     inkscape:label="Layer 1"
     inkscape:groupmode="layer"
     id="layer1">
    <path
       style="fill:#090909;stroke:none;stroke-width:0.264583"
       d="m 23.009687,6.606408 c -1.482805,4.378826 -2.543546,9.941956 -2.910417,14.552086 H 19.834687 C 18.823449,16.891184 16.005928,13.018484 15.175692,8.726964 14.804243,6.806989 17.542681,5.804721 16.62029,3.43162 15.643819,0.919375 12.097291,0.250137 10.576731,2.6493 c -1.8283239,2.884673 1.170887,3.813281 1.765511,6.084385 0.996104,3.804499 0.08411,9.014139 0.08411,12.953969 h -0.264583 c -1.560565,-3.29956 -4.5486369,-6.11248 -5.8145099,-9.525 -0.588671,-1.58694 0.979593,-3.003969 0.07615,-4.758421 -0.762106,-1.479974 -2.455862,-2.181966 -4.051221,-1.683438 -4.265342,1.332838 -2.18905602,6.617649 1.5875,6.706449 0.09488,4.59629 0.888895,11.31437 2.53029,15.61041 0.783273,2.05 3.215376,3.34222 3.6598489,5.55625 0.561817,2.7985 -4.4688919,5.4655 -2.1066649,8.45132 1.388004,1.75445 4.2332009,1.45389 6.2352769,1.64783 6.063165,0.58658 12.45235,0.86016 18.520833,0.14419 1.894946,-0.22383 5.665788,0.1704 6.907213,-1.55019 2.049462,-2.84004 -2.258483,-6.00075 -1.720321,-8.69315 0.44794,-2.24181 2.872052,-3.49408 3.659981,-5.55625 1.641211,-4.29604 2.435225,-11.01412 2.530211,-15.61041 3.770306,-0.0886 5.840676,-5.373055 1.587236,-6.706449 -1.594644,-0.49993 -3.289565,0.204576 -4.051036,1.683438 -0.903288,1.754478 0.664898,3.171454 0.0762,4.758421 -1.263121,3.40501 -4.255029,6.22785 -5.814484,9.525 h -0.264583 c 0,-3.73922 -0.908579,-8.81062 0.08414,-12.407843 C 36.17721,7.89096 37.79011,7.412911 38.034056,5.812658 38.28832,4.145757 37.411226,2.422023 35.709691,1.958631 31.702047,0.867252 29.58591,6.405537 33.328441,8.193908 L 28.301354,21.158494 H 28.03677 C 27.669793,16.548364 26.609079,10.985234 25.126354,6.606408 28.253464,4.978639 28.19261,0 24.06802,0 19.943404,0 19.882629,4.978639 23.009687,6.606408 M 23.554464,2.008664 C 25.276108,1.393243 26.379685,3.946922 24.581576,4.589569 22.859933,5.20499 21.756408,2.651311 23.554464,2.008664 m -10.069777,1.09937 c 1.756198,0.128376 1.818851,2.890812 -0.0037,2.890812 -1.924712,0 -1.910133,-3.030697 0.0037,-2.890812 m 20.67269,0.752714 C 35.761281,3.257524 37.00985,5.748285 35.384779,6.445542 33.639058,7.194392 32.338102,4.545066 34.157377,3.860748 M 2.9166731,7.571449 c 1.775565,-0.599704 2.680652,2.150322 0.986472,2.795667 -1.795886,0.684108 -2.81215,-2.179029 -0.986472,-2.795667 M 44.452314,7.530409 c 1.908178,-0.382509 2.432048,2.566934 0.516732,2.901235 -1.793082,0.31295 -2.346855,-2.534364 -0.516732,-2.901235 m -20.11971,3.838495 2.38125,12.7 h -5.291667 l 2.38125,-12.7 h 0.529167 m -9.789584,1.05833 4.497917,11.90625 -4.7625,0.26459 c 0,-3.44038 -1.060927,-9.012 0.264583,-12.17084 m 19.314584,0.52917 v 11.64167 l -4.7625,-0.26459 c 0.767027,-3.23664 2.540529,-8.90791 4.7625,-11.37708 m -27.2520839,3.175 5.2916669,8.73125 -3.9687499,0.52917 c -0.587084,-2.38311 -2.041711,-6.92232 -1.322917,-9.26042 m 35.1895839,0 -1.5875,9.26042 -3.96875,-0.52917 c 1.079235,-2.84718 3.449108,-6.53092 5.55625,-8.73125 m -1.852084,11.1125 c -0.502972,1.07897 -1.667139,2.8194 -2.934229,3.06731 -2.883429,0.5641 -6.795558,-0.60933 -9.765771,-0.68209 -5.247296,-0.12859 -10.692262,1.03214 -15.864575,0.70564 -1.3978999,-0.0884 -2.6523959,-1.9476 -3.1854249,-3.09086 10.8629719,-0.85725 20.8870019,-0.85725 31.7499999,0 m -3.704166,5.02708 -0.264584,2.64584 c -6.978385,-1.66212 -16.834194,-1.66212 -23.8125,0 l -0.264583,-2.64584 c 5.124661,-1.22052 11.190023,-0.9099 16.404167,-0.55298 2.665148,0.18257 5.307806,-0.0733 7.9375,0.55298 m 2.116666,8.99584 c -3.702579,0.68791 -7.411508,0.43259 -11.1125,0.86915 -2.524654,0.29792 -4.895585,-0.0101 -7.408333,-0.0714 -2.857077,-0.0701 -6.830986,0.37279 -9.508464,-0.76968 -1.6151489,-0.68897 -0.255667,-3.53986 0.833755,-4.21798 1.589537,-0.98928 4.479713,-0.76518 6.293459,-0.84746 4.446561,-0.20188 8.782579,-0.20188 13.229167,0 1.700212,0.077 4.800335,-0.18839 6.235171,0.84746 0.833966,0.60219 1.295135,3.18902 1.437745,4.18994 z"
       id="path1136" />
  </g>
</svg>
