<?xml version="1.0" encoding="UTF-8" standalone="no"?>
<svg
   xmlns:dc="http://purl.org/dc/elements/1.1/"
   xmlns:cc="http://creativecommons.org/ns#"
   xmlns:rdf="http://www.w3.org/1999/02/22-rdf-syntax-ns#"
   xmlns:svg="http://www.w3.org/2000/svg"
   xmlns="http://www.w3.org/2000/svg"
   xmlns:sodipodi="http://sodipodi.sourceforge.net/DTD/sodipodi-0.dtd"
   xmlns:inkscape="http://www.inkscape.org/namespaces/inkscape"
   width="48.128944mm"
   height="44.265839mm"
   viewBox="0 0 48.128944 44.265839"
   version="1.1"
   id="svg1106"
   inkscape:version="1.0.1 (3bc2e81, 2020-09-07)"
   sodipodi:docname="wq.svg">
  <defs
     id="defs1100" />
  <sodipodi:namedview
     id="base"
     pagecolor="#ffffff"
     bordercolor="#666666"
     borderopacity="1.0"
     inkscape:pageopacity="0.0"
     inkscape:pageshadow="2"
     inkscape:zoom="2.3801848"
     inkscape:cx="153.24861"
     inkscape:cy="137.1411"
     inkscape:document-units="mm"
     inkscape:current-layer="layer1"
     inkscape:document-rotation="0"
     showgrid="false"
     inkscape:window-width="1338"
     inkscape:window-height="696"
     inkscape:window-x="14"
     inkscape:window-y="58"
     inkscape:window-maximized="0"
     inkscape:pagecheckerboard="true" />
  <metadata
     id="metadata1103">
    <rdf:RDF>
      <cc:Work
         rdf:about="">
        <dc:format>image/svg+xml</dc:format>
        <dc:type
           rdf:resource="http://purl.org/dc/dcmitype/StillImage" />
        <dc:title></dc:title>
      </cc:Work>
    </rdf:RDF>
  </metadata>
  <g
     inkscape:label="Layer 1"
     inkscape:groupmode="layer"
     id="layer1">
    <path
       style="fill:#090909;stroke:none;stroke-width:0.264583"
       d="m 23.009687,6.606408 c -1.482805,4.378826 -2.543546,9.941956 -2.910417,14.552086 H 19.834687 C 18.823449,16.891184 16.005928,13.018484 15.175692,8.726964 14.804243,6.806989 17.542681,5.804721 16.62029,3.43162 15.643819,0.919375 12.097291,0.250137 10.576731,2.6493 c -1.8283239,2.884673 1.170887,3.813281 1.765511,6.084385 0.996104,3.804499 0.08411,9.014139 0.08411,12.953969 h -0.264583 c -1.560565,-3.29956 -4.5486369,-6.11248 -5.8145099,-9.525 -0.588671,-1.58694 0.979593,-3.003969 0.07615,-4.758421 -0.762106,-1.479974 -2.455862,-2.181966 -4.051221,-1.683438 -4.265342,1.332838 -2.18905602,6.617649 1.5875,6.706449 0.09488,4.59629 0.888895,11.31437 2.53029,15.61041 0.783273,2.05 3.215376,3.34222 3.6598489,5.55625 0.561817,2.7985 -4.4688919,5.4655 -2.1066649,8.45132 1.388004,1.75445 4.2332009,1.45389 6.2352769,1.64783 6.063165,0.58658 12.45235,0.86016 18.520833,0.14419 1.894946,-0.22383 5.665788,0.1704 6.907213,-1.55019 2.049462,-2.84004 -2.258483,-6.00075 -1.720321,-8.69315 0.44794,-2.24181 2.872052,-3.49408 3.659981,-5.55625 1.641211,-4.29604 2.435225,-11.01412 2.530211,-15.61041 3.770306,-0.0886 5.840676,-5.373055 1.587236,-6.706449 -1.594644,-0.49993 -3.289565,0.204576 -4.051036,1.683438 -0.903288,1.754478 0.664898,3.171454 0.0762,4.758421 -1.263121,3.40501 -4.255029,6.22785 -5.814484,9.525 h -0.264583 c 0,-3.73922 -0.908579,-8.81062 0.08414,-12.407843 C 36.17721,7.89096 37.79011,7.412911 38.034056,5.812658 38.28832,4.145757 37.411226,2.422023 35.709691,1.958631 31.702047,0.867252 29.58591,6.405537 33.328441,8.193908 L 28.301354,21.158494 H 28.03677 C 27.669793,16.548364 26.609079,10.985234 25.126354,6.606408 28.253464,4.978639 28.19261,0 24.06802,0 19.943404,0 19.882629,4.978639 23.009687,6.606408 M 23.554464,2.008664 C 25.276108,1.393243 26.379685,3.946922 24.581576,4.589569 22.859933,5.20499 21.756408,2.651311 23.554464,2.008664 m -10.069777,1.09937 c 1.756198,0.128376 1.818851,2.890812 -0.0037,2.890812 -1.924712,0 -1.910133,-3.030697 0.0037,-2.890812 m 20.67269,0.752714 C 35.761281,3.257524 37.00985,5.748285 35.384779,6.445542 33.639058,7.194392 32.338102,4.545066 34.157377,3.860748 M 2.9166731,7.571449 c 1.775565,-0.599704 2.680652,2.150322 0.986472,2.795667 -1.795886,0.684108 -2.81215,-2.179029 -0.986472,-2.795667 M 44.452314,7.530409 c 1.908178,-0.382509 2.432048,2.566934 0.516732,2.901235 -1.793082,0.31295 -2.346855,-2.534364 -0.516732,-2.901235 m -20.11971,3.838495 2.38125,12.7 h -5.291667 l 2.38125,-12.7 h 0.529167 m -9.789584,1.05833 4.497917,11.90625 -4.7625,0.26459 c 0,-3.44038 -1.060927,-9.012 0.264583,-12.17084 m 19.314584,0.52917 v 11.64167 l -4.7625,-0.26459 c 0.767027,-3.23664 2.540529,-8.90791 4.7625,-11.37708 m -27.2520839,3.175 5.2916669,8.73125 -3.9687499,0.52917 c -0.587084,-2.38311 -2.041711,-6.92232 -1.322917,-9.26042 m 35.1895839,0 -1.5875,9.26042 -3.96875,-0.52917 c 1.079235,-2.84718 3.449108,-6.53092 5.55625,-8.73125 m -1.852084,11.1125 c -0.502972,1.07897 -1.667139,2.8194 -2.934229,3.06731 -2.883429,0.5641 -6.795558,-0.60933 -9.765771,-0.68209 -5.247296,-0.12859 -10.692262,1.03214 -15.864575,0.70564 -1.3978999,-0.0884 -2.6523959,-1.9476 -3.1854249,-3.09086 10.8629719,-0.85725 20.8870019,-0.85725 31.7499999,0 m -3.704166,5.02708 -0.264584,2.64584 c -6.978385,-1.66212 -16.834194,-1.66212 -23.8125,0 l -0.264583,-2.64584 c 5.124661,-1.22052 11.190023,-0.9099 16.404167,-0.55298 2.665148,0.18257 5.307806,-0.0733 7.9375,0.55298 m 2.116666,8.99584 c -3.702579,0.68791 -7.411508,0.43259 -11.1125,0.86915 -2.524654,0.29792 -4.895585,-0.0101 -7.408333,-0.0714 -2.857077,-0.0701 -6.830986,0.37279 -9.508464,-0.76968 -1.6151489,-0.68897 -0.255667,-3.53986 0.833755,-4.21798 1.589537,-0.98928 4.479713,-0.76518 6.293459,-0.84746 4.446561,-0.20188 8.782579,-0.20188 13.229167,0 1.700212,0.077 4.800335,-0.18839 6.235171,0.84746 0.833966,0.60219 1.295135,3.18902 1.437745,4.18994 z"
       id="path1136" />
    <path
       style="fill:#ffffff;stroke-width:0.420135"
       d="m 86.657148,159.29827 c -3.119506,-0.17265 -11.587435,-0.33624 -18.81762,-0.36354 -28.050566,-0.1059 -33.963605,-2.40606 -30.368869,-11.81342 2.08188,-5.44824 5.284736,-7.92115 11.712734,-9.04333 5.593268,-0.97645 31.323132,-1.59693 53.571447,-1.29188 27.53575,0.37754 32.28811,0.81195 36.03623,3.29405 2.31247,1.53137 4.58908,7.1977 5.63535,14.02599 l 0.26556,1.73314 -3.28412,0.47282 c -4.60997,0.66372 -12.19509,1.22716 -23.45062,1.74198 -5.31472,0.24309 -11.4592,0.61207 -13.6544,0.81997 -6.677935,0.63243 -11.701452,0.75319 -17.645692,0.42422 z"
       id="path1081"
       transform="scale(0.26458333)" />
    <path
       style="fill:#ffffff;stroke-width:0.420135"
       d="m 46.267492,131.47126 c -0.27891,-0.51709 -0.94624,-9.2475 -0.717654,-9.38878 0.818333,-0.50576 13.112335,-2.26804 18.950309,-2.71644 7.302863,-0.5609 26.861165,-0.3575 39.592623,0.41176 4.15934,0.25131 11.91084,0.64069 17.22555,0.86527 10.67144,0.45095 15.33494,1.05278 15.33494,1.97898 0,0.99391 -0.9024,8.73629 -1.03353,8.86742 -0.0681,0.0681 -1.9903,-0.256 -4.27163,-0.72015 -24.06561,-4.89623 -56.627774,-4.89284 -80.763814,0.008 -4.173424,0.84749 -4.22894,0.85641 -4.316794,0.69353 z"
       id="path1083"
       transform="scale(0.26458333)" />
    <path
       style="fill:#ffffff;stroke-width:0.420135"
       d="m 43.319547,114.38646 c -2.690799,-0.38096 -4.493719,-1.3668 -6.740034,-3.68544 -1.81558,-1.87405 -5.550599,-7.43808 -5.075757,-7.56133 0.715993,-0.18584 21.486769,-1.42577 30.365401,-1.81269 12.16995,-0.53035 46.265583,-0.53162 58.188763,-0.002 10.70848,0.47551 30.17975,1.69837 30.40017,1.90922 0.38774,0.37093 -3.29249,5.64599 -5.43098,7.78447 -3.30958,3.30958 -4.19093,3.5479 -12.99533,3.51391 -5.86492,-0.0226 -8.88232,-0.26622 -14.91481,-1.20396 -5.61429,-0.87274 -9.67294,-1.22707 -15.75508,-1.37546 -7.981462,-0.19474 -10.40729,-0.0638 -32.560498,1.75742 -9.456437,0.77742 -22.349725,1.11947 -25.481845,0.67603 z"
       id="path1085"
       transform="scale(0.26458333)" />
    <path
       style="fill:#ffffff;stroke-width:0.420135"
       d="m 119.00758,92.2736 c -4.73703,-0.292204 -8.64679,-0.549033 -8.68835,-0.570728 -0.21253,-0.110933 2.70269,-10.256382 4.47868,-15.586563 3.55552,-10.670927 7.81948,-19.745008 11.62607,-24.741264 l 1.40644,-1.845992 v 21.697391 c 0,11.933565 -0.0473,21.670629 -0.10503,21.637917 -0.0578,-0.03269 -3.98079,-0.298552 -8.71781,-0.590761 z"
       id="path1087"
       transform="scale(0.26458333)" />
    <path
       style="fill:#ffffff;stroke-width:0.420135"
       d="m 144.72153,94.794073 c -3.7656,-0.510732 -6.94673,-1.028793 -7.06918,-1.151247 -0.66541,-0.665404 4.96457,-11.413947 9.81652,-18.741332 2.96764,-4.481723 9.72306,-13.26796 9.9837,-12.985011 0.13315,0.144548 -5.58949,33.602826 -5.76847,33.726207 -0.0638,0.04399 -3.19697,-0.337885 -6.96257,-0.848617 z"
       id="path1089"
       transform="scale(0.26458333)" />
    <path
       style="fill:#ffffff;stroke-width:0.420135"
       d="m 81.39531,89.877854 c 0.351762,-1.539944 8.622921,-45.922267 8.622921,-46.26985 0,-0.175225 0.41214,-0.258177 0.915867,-0.184337 0.865648,0.126893 1.152347,1.389765 5.228679,23.031636 2.372048,12.59356 4.323173,23.228238 4.335823,23.632618 0.0213,0.679599 -0.708835,0.735237 -9.648102,0.735237 h -9.67112 z"
       id="path1091"
       transform="scale(0.26458333)" />
    <path
       style="fill:#ffffff;stroke-width:0.420135"
       d="m 54.306719,92.556099 c 0,-0.124742 -0.397626,-6.001184 -0.883614,-13.058764 -1.035019,-15.030679 -0.909272,-22.223673 0.492925,-28.19626 l 0.920576,-3.921147 0.567111,1.45008 c 3.980308,10.17749 16.057221,42.624664 15.917137,42.76475 -0.1023,0.102299 -2.979761,0.342692 -6.394357,0.534202 -3.414595,0.191515 -7.200926,0.416997 -8.414067,0.501071 -1.213141,0.08408 -2.205711,0.05081 -2.205711,-0.07393 z"
       id="path1093"
       transform="scale(0.26458333)" />
    <path
       style="fill:#ffffff;stroke-width:0.420135"
       d="M 28.348157,88.797292 C 27.364812,84.943417 26.17544,79.899637 25.705108,77.588892 24.709066,72.695326 24.215142,65.184696 24.755619,63.15093 c 0.369429,-1.390126 0.536103,-1.149153 9.968789,14.412653 5.276193,8.704529 9.477428,15.942066 9.336079,16.083415 -0.141349,0.141349 -2.856621,0.597466 -6.033939,1.013593 -3.177316,0.416127 -6.252488,0.843703 -6.833715,0.950171 -1.040211,0.190542 -1.084801,0.08374 -2.844676,-6.81347 z"
       id="path1095"
       transform="scale(0.26458333)" />
    <path
       style="fill:#ffffff;stroke-width:0.420135"
       d="M 11.036744,38.82777 C 5.7891351,36.194033 7.1044664,28.596864 12.797481,28.658001 c 2.931179,0.03148 4.95012,2.280641 4.954687,5.519672 0.0031,2.17065 -1.350108,4.278695 -3.061666,4.76964 -0.509769,0.146223 -1.212423,0.343756 -1.561455,0.438963 -0.349032,0.09521 -1.290568,-0.156121 -2.092303,-0.558506 z"
       id="path1097"
       transform="scale(0.26458333)" />
    <path
       style="fill:#ffffff;stroke-width:0.420135"
       d="m 49.019393,22.031522 c -1.998796,-0.878041 -3.115382,-2.578277 -3.115382,-4.743821 0,-3.439329 1.579892,-5.143487 4.781949,-5.158072 1.799052,-0.0082 2.218637,0.168332 3.414843,1.436681 1.554874,1.648646 2.000087,3.571309 1.309743,5.656152 -0.84249,2.544326 -3.917312,3.895781 -6.391153,2.80906 z"
       id="path1099"
       transform="scale(0.26458333)" />
    <path
       style="fill:#ffffff;stroke-width:0.420135"
       d="m 88.871133,16.959161 c -3.772624,-1.640065 -4.00918,-7.0529724 -0.383422,-8.7735073 3.095642,-1.4689783 5.990493,-0.3473749 7.186531,2.7844053 0.647923,1.696562 0.653617,1.999306 0.06414,3.410112 -0.476593,1.140649 -1.121154,1.763502 -2.448292,2.36584 -2.133117,0.968141 -2.627416,0.991984 -4.418962,0.21315 z"
       id="path1101"
       transform="scale(0.26458333)" />
    <path
       style="fill:#ffffff;stroke-width:0.420135"
       d="m 129.19848,24.033372 c -2.52302,-1.2438 -3.72942,-4.497416 -2.59266,-6.992322 1.06303,-2.33311 5.14958,-3.18917 7.2683,-1.522583 3.32069,2.612055 3.10308,7.150829 -0.41329,8.62006 -1.78594,0.746216 -2.57485,0.726753 -4.26235,-0.105155 z"
       id="path1103"
       transform="scale(0.26458333)" />
    <path
       style="fill:#ffffff;stroke-width:0.420135"
       d="m 166.93865,38.710336 c -2.5009,-1.310228 -3.67662,-4.80554 -2.4391,-7.251208 0.71616,-1.415311 3.10519,-2.953559 4.58714,-2.953559 5.04173,0 6.99389,7.064204 2.7251,9.86122 -1.59406,1.044472 -3.30502,1.165091 -4.87314,0.343547 z"
       id="path1105"
       transform="scale(0.26458333)" />
  </g>
</svg>
