<?xml version="1.0" encoding="UTF-8" standalone="no"?>
<svg
   xmlns:dc="http://purl.org/dc/elements/1.1/"
   xmlns:cc="http://creativecommons.org/ns#"
   xmlns:rdf="http://www.w3.org/1999/02/22-rdf-syntax-ns#"
   xmlns:svg="http://www.w3.org/2000/svg"
   xmlns="http://www.w3.org/2000/svg"
   xmlns:sodipodi="http://sodipodi.sourceforge.net/DTD/sodipodi-0.dtd"
   xmlns:inkscape="http://www.inkscape.org/namespaces/inkscape"
   width="36.290627mm"
   height="40.183807mm"
   viewBox="0 0 36.290627 40.183807"
   version="1.1"
   id="svg1162"
   inkscape:version="1.0.1 (3bc2e81, 2020-09-07)"
   sodipodi:docname="wr_temp.svg">
  <defs
     id="defs1156" />
  <sodipodi:namedview
     id="base"
     pagecolor="#ffffff"
     bordercolor="#666666"
     borderopacity="1.0"
     inkscape:pageopacity="0.0"
     inkscape:pageshadow="2"
     inkscape:zoom="2.2019255"
     inkscape:cx="11.133937"
     inkscape:cy="108.98097"
     inkscape:document-units="mm"
     inkscape:current-layer="layer1"
     inkscape:document-rotation="0"
     showgrid="false"
     inkscape:window-width="1338"
     inkscape:window-height="696"
     inkscape:window-x="14"
     inkscape:window-y="58"
     inkscape:window-maximized="0" />
  <metadata
     id="metadata1159">
    <rdf:RDF>
      <cc:Work
         rdf:about="">
        <dc:format>image/svg+xml</dc:format>
        <dc:type
           rdf:resource="http://purl.org/dc/dcmitype/StillImage" />
        <dc:title></dc:title>
      </cc:Work>
    </rdf:RDF>
  </metadata>
  <g
     inkscape:label="Layer 1"
     inkscape:groupmode="layer"
     id="layer1"
     transform="translate(-214.33919,-197.67687)">
    <path
       style="fill:#0f0f0f;stroke:none;stroke-width:0.264583"
       d="m 218.45113,231.72213 c -0.97385,0 -2.48068,-0.26908 -3.32486,0.31194 -1.04944,0.72231 -1.04944,4.47463 0,5.19695 1.74818,1.20332 6.52682,0.31194 8.61653,0.31194 h 17.4625 c 2.44898,0 5.8293,0.60696 8.17324,-0.11483 1.46764,-0.45191 1.60099,-4.27037 0.62627,-5.2451 -0.77735,-0.77734 -2.50772,-0.4609 -3.50785,-0.4609 0,-1.27768 0.30136,-3.00302 -0.15875,-4.20952 -0.48815,-1.28085 -1.76715,-2.05185 -2.1119,-3.4634 -0.93028,-3.80973 -0.43577,-9.58136 -0.095,-13.49375 0.17542,-2.01644 2.26986,-2.92259 3.26443,-4.49792 0.88847,-1.40769 0.77814,-5.53259 0.33999,-7.12824 -0.36962,-1.3462 -2.00263,-1.07376 -3.09086,-1.07384 -2.3786,-1.6e-4 -3.69464,-0.0683 -3.70417,2.64583 -1.08399,0 -2.94613,0.35338 -3.88461,-0.27194 -1.34408,-0.89566 -0.28099,-2.30079 -2.46565,-2.36982 -1.47029,-0.0465 -4.14123,-0.48566 -5.47188,0.19233 -0.79845,0.40682 -0.45706,1.44817 -1.03751,2.0252 -0.83685,0.83193 -2.98698,0.42423 -4.07368,0.42423 -0.01,-2.71417 -1.32567,-2.64599 -3.70417,-2.64583 -1.08831,8e-5 -2.72118,-0.27236 -3.09089,1.07384 -0.39899,1.45293 -0.55925,5.46925 0.18783,6.78812 0.93732,1.65471 3.25784,2.50381 3.41773,4.57735 0.31861,4.13154 0.644,9.40681 -0.0449,13.48986 -0.26445,1.56739 -1.63756,2.34923 -2.16323,3.72798 -0.46009,1.2065 -0.15862,2.93184 -0.15862,4.20952 m 3.70417,-32.01459 c 0.0468,3.96084 8.10691,3.93507 8.20208,0 h 4.23333 c 0.0953,3.93507 8.15526,3.96084 8.20209,0 h 3.175 v 4.49792 h -26.9875 v -4.49792 h 3.175 m 22.225,6.35 c -1.5367,2.15572 -3.41577,1.85209 -5.82084,1.85209 h -12.7 c -2.26668,0 -3.85767,0.15959 -5.29166,-1.85209 h 23.8125 m -2.11667,2.91042 v 14.55208 h -19.57916 v -14.55208 h 19.57917 m 1.05833,17.72708 h -21.69583 l 1.42603,-1.95712 4.13022,-0.15954 h 9.78958 l 4.70615,0.0841 1.64385,2.03253 m 1.32292,2.11667 v 2.91042 h -24.34167 v -2.91042 h 24.34167 m 3.70417,4.7625 v 1.85208 h -31.75 v -1.85208 z"
       id="path1332" />
  </g>
</svg>
